G04 ================== begin FILE IDENTIFICATION RECORD ==================*
G04 Layout Name:  JOYCAR_ARDUINO_BASIC_V0_11.brd*
G04 Film Name:    JOYCAR_ARDUINO_BASIC_V0TOP*
G04 File Format:  Gerber RS274X*
G04 File Origin:  Cadence Allegro 17.2-P019*
G04 Origin Date:  Mon Mar 28 15:32:30 2022*
G04 *
G04 Layer:  VIA CLASS/TOP*
G04 Layer:  PIN/TOP*
G04 Layer:  ETCH/TOP*
G04 *
G04 Offset:    (0.000 0.000)*
G04 Mirror:    No*
G04 Mode:      Positive*
G04 Rotation:  0*
G04 FullContactRelief:  No*
G04 UndefLineWidth:     1.000*
G04 ================== end FILE IDENTIFICATION RECORD ====================*
%FSLAX25Y25*MOIN*%
%IR0*IPPOS*OFA0.00000B0.00000*MIA0B0*SFA1.00000B1.00000*%
%ADD12C,.15*%
%ADD13C,.170079*%
%ADD11C,.016*%
%ADD16C,.065*%
%ADD15R,.065X.065*%
%ADD10C,.055118*%
%ADD19C,.059055*%
%ADD14C,.064961*%
%ADD18C,.062992*%
%ADD17R,.062992X.062992*%
%ADD20C,.006*%
%ADD21C,.008*%
%ADD22C,.01*%
%ADD24C,.170004*%
%ADD29C,.511816*%
%ADD25C,.190084*%
%ADD31C,.036004*%
%ADD27C,.085004*%
%ADD23C,.075122*%
%ADD30C,.07906*%
%ADD26C,.084966*%
%ADD28C,.082996*%
G75*
%LPD*%
G75*
G36*
G01X-191179Y373749D02*
X-206225Y388795D01*
Y591547D01*
G02X-205764Y591942I400J0D01*
G03Y599368I569J3713D01*
G02X-206225Y599763I-61J395D01*
G01Y621547D01*
G02X-205764Y621942I400J0D01*
G03Y629368I569J3713D01*
G02X-206225Y629763I-61J395D01*
G01Y635183D01*
X-199538Y641870D01*
X-148128D01*
Y699131D01*
X-146503D01*
G02X-146109Y698666I0J-400D01*
G03X-138696I3706J-609D01*
G02X-138301Y699131I395J65D01*
G01X46001D01*
G02X46284Y698448I0J-400D01*
G01X37753Y689917D01*
Y666468D01*
X44440Y659781D01*
Y655827D01*
G02X43764Y655538I-400J0D01*
G03X41420Y652811I-1243J-1302D01*
G01Y598920D01*
G02X40909Y598536I-400J0D01*
G03X39804Y598501I-499J-1730D01*
G02X39270Y598878I-135J377D01*
G01Y603600D01*
G03X37069I-1100J1425D01*
G01Y511550D01*
X-9072Y465409D01*
Y460014D01*
X-18034Y451051D01*
X-26220D01*
G03X-26277Y448781I-1425J-1100D01*
G01X-26217Y448851D01*
X-25914D01*
Y448586D01*
X-25952Y448534D01*
G03X-23071Y446375I1457J-1058D01*
G01X-18364D01*
G02X-18081Y445693I0J-400D01*
G01X-28845Y434928D01*
Y407160D01*
G03X-26868Y404195I1200J-1342D01*
G02X-26295Y403846I173J-361D01*
G03X-23295Y405240I1799J53D01*
G01Y434441D01*
X-17042Y440695D01*
G02X-16359Y440412I283J-283D01*
G01Y430636D01*
G03X-14159I1100J-1425D01*
G01Y440589D01*
X-3536Y451212D01*
G02X-2904Y451126I283J-283D01*
G03X89Y450910I1568J884D01*
G01X48230D01*
G02X48610Y450387I0J-400D01*
G03X48528Y449693I1713J-554D01*
G01X48535Y449601D01*
X36067Y437133D01*
G02X35393Y437335I-283J283D01*
G03X33244Y438728I-1763J-365D01*
G02X32758Y439133I-86J391D01*
G03X30434Y440917I-1799J62D01*
G02X29919Y441322I-117J383D01*
G03X26696Y442521I-1797J99D01*
G01X-5441D01*
X-12261Y435701D01*
Y412033D01*
X-7386Y407158D01*
X-7393Y407066D01*
G03X-5738Y408721I1795J-140D01*
G01X-5830Y408714D01*
X-10061Y412945D01*
Y414774D01*
G02X-9404Y415080I400J0D01*
G03X-6822Y415359I1157J1379D01*
G01X8679D01*
X30727Y437407D01*
X30819Y437400D01*
G03X31345Y437437I140J1795D01*
G02X31831Y437032I86J-391D01*
G03X31835Y436830I1799J-63D01*
G01X31842Y436738D01*
X10187Y415083D01*
X10089Y415095D01*
G03X11658Y413355I-230J-1785D01*
G01X11656Y413440D01*
X33398Y435182D01*
X33490Y435175D01*
G03X33622Y435170I140J1795D01*
G01X33704Y435169D01*
X33904Y434970D01*
X28211Y429277D01*
Y426869D01*
G03X30411I1100J-1425D01*
G01Y428365D01*
X36136Y434090D01*
G02X36819Y433807I283J-283D01*
G01Y373749D01*
X-191179D01*
G37*
G36*
G01X-10061Y418145D02*
Y434789D01*
X-4529Y440321D01*
X26696D01*
G03X28646Y439699I1425J1100D01*
G02X29162Y439294I117J-383D01*
G03X29164Y439055I1797J-99D01*
G01X29171Y438963D01*
X7768Y417560D01*
X-6822D01*
G03X-9404Y417839I-1425J-1100D01*
G02X-10061Y418145I-257J306D01*
G37*
G36*
G01X116023Y374794D02*
Y436652D01*
X39664D01*
G02X39381Y437335I0J400D01*
G01X50091Y448045D01*
X50183Y448038D01*
G03X52036Y450387I140J1795D01*
G02X52416Y450910I381J123D01*
G01X141481D01*
X307083Y616512D01*
X307175Y616505D01*
G03X305520Y618160I140J1795D01*
G01X305527Y618068D01*
X140569Y453110D01*
X89D01*
G03X-452Y453578I-1425J-1100D01*
G02X-538Y454210I196J348D01*
G01X52323Y507071D01*
Y591878D01*
X161416D01*
X162660Y593122D01*
Y649309D01*
X216696D01*
G03Y651509I1425J1100D01*
G01X161704D01*
X160460Y650265D01*
Y594078D01*
X51367D01*
X50122Y592834D01*
Y507982D01*
X49587Y507447D01*
G02X48904Y507730I-283J283D01*
G01Y672679D01*
G03X46324Y672041I-2183J3295D01*
G01X46504Y672023D01*
Y662077D01*
G02X45821Y661794I-400J0D01*
G01X40153Y667462D01*
Y688923D01*
X49522Y698292D01*
X71012D01*
X71851Y699131D01*
X80409D01*
Y697159D01*
G03X82609I1100J-1425D01*
G01Y699131D01*
X100618D01*
G02X100969Y698539I0J-400D01*
G03X107906I3469J-1896D01*
G02X108257Y699131I351J192D01*
G01X292985D01*
G02X293368Y698615I0J-400D01*
G03X298524Y694106I3594J-1093D01*
G02X299090Y693742I166J-364D01*
G01Y640199D01*
X346319D01*
X354678Y631840D01*
Y399148D01*
X354522Y399113D01*
G03Y391784I826J-3664D01*
G01X354678Y391749D01*
Y376047D01*
X353425Y374794D01*
X116023D01*
G37*
%LPC*%
G75*
G36*
G01X17898Y376441D02*
Y382741D01*
G02X18898Y383741I1000J0D01*
G01X25198D01*
G02X26198Y382741I0J-1000D01*
G01Y376441D01*
G02X25198Y375441I-1000J0D01*
G01X18898D01*
G02X17898Y376441I0J1000D01*
G37*
G36*
G01X-47746Y666144D02*
Y672644D01*
G02X-46746Y673644I1000J0D01*
G01X-40246D01*
G02X-39246Y672644I0J-1000D01*
G01Y666144D01*
G02X-40246Y665144I-1000J0D01*
G01X-46746D01*
G02X-47746Y666144I0J1000D01*
G37*
G36*
G01X-16523Y618728D02*
Y554728D01*
G02X-41023Y530228I-24500J0D01*
G01X-43523D01*
G02X-68023Y554728I0J24500D01*
G01Y618728D01*
G02X-43523Y643228I24500J0D01*
G01X-41023D01*
G02X-16523Y618728I0J-24500D01*
G37*
G36*
G01X-112731Y657374D02*
X-105645Y650288D01*
X-105133D01*
G02Y648088I1425J-1100D01*
G01X-106556D01*
X-114287Y655818D01*
X-114417Y655749D01*
G02X-112661Y657505I-1995J3751D01*
G01X-112731Y657374D01*
G37*
G36*
G01X-101920Y625019D02*
X-81778Y604877D01*
Y591530D01*
X-86148Y587160D01*
X-108807D01*
G02Y589360I-1425J1100D01*
G01X-87060D01*
X-83978Y592442D01*
Y603965D01*
X-103476Y623463D01*
X-103568Y623456D01*
G02X-101913Y625111I-140J1795D01*
G01X-101920Y625019D01*
G37*
G36*
G01X30564Y527873D02*
X30002Y527311D01*
X-70569D01*
G02Y529511I-1425J1100D01*
G01X29046D01*
Y599197D01*
G02X30719Y602328I1100J1425D01*
G03X31247Y602708I127J379D01*
G01Y694173D01*
X32576Y695502D01*
X32569Y695594D01*
G02X34224Y693939I1795J140D01*
G01X34132Y693946D01*
X33447Y693261D01*
Y525095D01*
X32203Y523851D01*
X-23646D01*
G02Y526051I-1425J1100D01*
G01X31247D01*
Y527590D01*
G03X30564Y527873I-400J0D01*
G37*
G36*
G01X-108444Y630518D02*
X-87621Y651341D01*
X-5629D01*
X26244Y619468D01*
X26336Y619475D01*
G02X24681Y617820I140J-1795D01*
G01X24688Y617912D01*
X-6541Y649141D01*
X-86709D01*
X-106244Y629606D01*
Y610487D01*
X-107488Y609243D01*
X-127341D01*
X-127410Y609174D01*
Y581246D01*
G02X-127085Y580921I-1100J-1425D01*
G01X-94072D01*
G02Y578721I1425J-1100D01*
G01X-127085D01*
G02X-127156Y578635I-1425J1101D01*
G01Y553107D01*
X-89079Y515030D01*
X-75917D01*
G02Y512830I1425J-1100D01*
G01X-89991D01*
X-129356Y552195D01*
Y578232D01*
G02X-129610Y581246I846J1589D01*
G01Y610086D01*
X-128253Y611443D01*
X-108444D01*
Y630518D01*
G37*
G36*
G01X-73158Y484324D02*
X-76661D01*
G02Y486524I-1425J1100D01*
G01X-73158D01*
G02Y484324I1425J-1100D01*
G37*
G36*
G01X-22790Y466251D02*
X-110335Y553796D01*
X-121561D01*
G02Y555996I-1425J1100D01*
G01X-109423D01*
X-107180Y553752D01*
G03X-106499Y553994I283J283D01*
G02X-103215Y552804I1791J-184D01*
G01X-103307Y552667D01*
X-90265Y539625D01*
G03X-89593Y539817I283J283D01*
G02X-86045Y539267I1753J-410D01*
G01X-86052Y539175D01*
X-14956Y468079D01*
X-14884Y468073D01*
G02X-16279Y464968I-163J-1793D01*
G03X-16863Y464928I-274J-292D01*
G02X-19472Y464733I-1397J1136D01*
G03X-19747Y464729I-135J-148D01*
G02X-22797Y466159I-1255J1290D01*
G01X-22790Y466251D01*
G37*
G36*
G01X-53578Y478223D02*
X-30980Y455625D01*
X-30888Y455632D01*
G02X-32543Y453977I140J-1795D01*
G01X-32536Y454069D01*
X-55778Y477311D01*
Y488437D01*
G02X-53578I1100J1425D01*
G01Y478223D01*
G37*
G36*
G01X-70154Y441854D02*
X-77577D01*
G02Y444054I-1425J1100D01*
G01X-70154D01*
G02Y441854I1425J-1100D01*
G37*
G36*
G01X9876Y408314D02*
X15083Y413522D01*
X15076Y413614D01*
G02X16731Y411959I1795J140D01*
G01X16639Y411966D01*
X10583Y405910D01*
X10046D01*
G02X9736Y408424I-1425J1100D01*
G01X9876Y408314D01*
G37*
G36*
G01X-74367Y400808D02*
X-64966Y410209D01*
X-34334D01*
Y428688D01*
G02X-32134I1100J1425D01*
G01Y410753D01*
G02X-34292Y408009I-733J-1644D01*
G01X-64054D01*
X-72811Y399252D01*
X-72804Y399160D01*
G02X-74459Y400815I-1795J-140D01*
G01X-74367Y400808D01*
G37*
G36*
G01X-55223Y414986D02*
X-55139Y414987D01*
G02X-56921Y413205I18J-1800D01*
G01X-56920Y413289D01*
X-64008Y420376D01*
G03X-64686Y420036I-283J-283D01*
G02X-68263Y419918I-1782J-258D01*
G01X-68256Y420010D01*
X-143074Y494828D01*
Y555539D01*
G02X-140874I1100J1425D01*
G01Y495740D01*
X-66700Y421566D01*
X-66608Y421573D01*
G02X-66210Y421560I140J-1795D01*
G03X-65870Y422238I57J396D01*
G01X-134418Y490787D01*
Y614484D01*
X-132915Y615987D01*
X-117344D01*
X-117247Y616084D01*
Y643870D01*
X-117344Y643967D01*
X-125815D01*
X-127318Y645470D01*
Y666824D01*
X-125815Y668327D01*
X-75781D01*
G02Y665927I1342J-1200D01*
G01X-124821D01*
X-124918Y665830D01*
Y646464D01*
X-124821Y646367D01*
X-116350D01*
X-114847Y644864D01*
Y615090D01*
X-116350Y613587D01*
X-131921D01*
X-132018Y613490D01*
Y491781D01*
X-55223Y414986D01*
G37*
G36*
G01X191087Y666550D02*
Y673050D01*
G02X192087Y674050I1000J0D01*
G01X198587D01*
G02X199587Y673050I0J-1000D01*
G01Y666550D01*
G02X198587Y665550I-1000J0D01*
G01X192087D01*
G02X191087Y666550I0J1000D01*
G37*
G36*
G01X52938Y513365D02*
Y519865D01*
G02X53938Y520865I1000J0D01*
G01X60438D01*
G02X61438Y519865I0J-1000D01*
G01Y513365D01*
G02X60438Y512365I-1000J0D01*
G01X53938D01*
G02X52938Y513365I0J1000D01*
G37*
G36*
G01X222475Y617847D02*
Y553847D01*
G02X197975Y529347I-24500J0D01*
G01X195475D01*
G02X170975Y553847I0J24500D01*
G01Y617847D01*
G02X195475Y642347I24500J0D01*
G01X197975D01*
G02X222475Y617847I0J-24500D01*
G37*
G36*
G01X57385Y619105D02*
G02X55185I-1100J-1425D01*
G01Y635881D01*
X56429Y637125D01*
X64105D01*
G02X67021Y637216I1491J-1009D01*
G01X84945D01*
G02Y635016I1425J-1100D01*
G01X67021D01*
G02X64246Y634925I-1425J1100D01*
G01X57385D01*
Y619105D01*
G37*
G36*
G01X288266Y551240D02*
X288174Y551247D01*
X287860Y550933D01*
X260564D01*
G02Y553133I-1425J1100D01*
G01X286600D01*
X286626Y553303D01*
G02X288266Y551240I1780J-268D01*
G37*
G36*
G01X143144Y481515D02*
X148485Y486856D01*
Y517414D01*
X149922Y518851D01*
Y524795D01*
G02X150922Y525795I1000J0D01*
G01X157422D01*
G02X158422Y524795I0J-1000D01*
G01Y518295D01*
G02X157422Y517295I-1000J0D01*
G01X151478D01*
X150685Y516502D01*
Y485944D01*
X144056Y479315D01*
X135699D01*
G02Y481515I-1425J1100D01*
G01X143144D01*
G37*
G36*
G01X272070Y478880D02*
X256669D01*
G02Y481080I-1425J1100D01*
G01X272070D01*
G02Y478880I1425J-1100D01*
G37*
G36*
G01X137263Y483692D02*
X131719D01*
Y474276D01*
G02X129519I-1100J-1425D01*
G01Y484648D01*
X130763Y485892D01*
X137263D01*
G02Y483692I1425J-1100D01*
G37*
G36*
G01X166991Y644413D02*
Y586682D01*
X105813Y525504D01*
Y503400D01*
X104251Y501838D01*
X70501D01*
Y470427D01*
G02X68301I-1100J-1425D01*
G01Y502794D01*
X69545Y504038D01*
X103339D01*
X103613Y504312D01*
Y526416D01*
X164791Y587594D01*
Y644413D01*
G02X166991I1100J1425D01*
G37*
G36*
G01X280561Y459619D02*
X280469Y459626D01*
X269810Y448967D01*
X162280D01*
G02Y451167I-1425J1100D01*
G01X268898D01*
X278913Y461182D01*
X278906Y461274D01*
G02X280561Y459619I1795J140D01*
G37*
G36*
G01X292322Y415617D02*
X268131D01*
G02Y417817I-1425J1100D01*
G01X292322D01*
G02Y415617I1425J-1100D01*
G37*
G36*
G01X73716Y654461D02*
G02X71120Y655103I-2192J-3290D01*
G03X71301Y655834I-41J398D01*
G02X73897Y655191I2192J3290D01*
G03X73716Y654461I41J-398D01*
G37*
G54D24*
X-175777Y414748D03*
X-180996Y570485D03*
X20567Y685383D03*
X132972Y685276D03*
X329954Y414856D03*
X334823Y570554D03*
G54D29*
X259746Y638162D03*
G54D25*
X-129010Y631941D03*
X-84128D03*
G54D31*
X149368Y658496D03*
G54D27*
X-43496Y679394D03*
X67188Y516615D03*
X77188D03*
X87188D03*
X97188D03*
X124172Y521545D03*
X114172D03*
X144172D03*
X134172D03*
X195337Y679800D03*
G54D23*
X-200516Y396014D03*
X-196148Y515793D03*
Y545793D03*
X-187317Y437874D03*
Y467874D03*
X-161541Y387016D03*
X-156148Y515793D03*
Y545793D03*
X-165195Y595655D03*
Y625655D03*
X-147317Y437874D03*
Y467874D03*
X-138746Y668280D03*
X-99044Y673155D03*
X253176Y673381D03*
X301225Y438066D03*
Y468066D03*
X292786Y667814D03*
X316083Y387816D03*
X310109Y516065D03*
Y546065D03*
X319184Y595691D03*
Y625691D03*
X341225Y438066D03*
Y468066D03*
X350109Y516065D03*
Y546065D03*
G54D30*
X46721Y687785D03*
X62469D03*
X83335Y651171D03*
X108138Y675974D03*
Y687785D03*
G54D26*
X-106570Y602413D03*
X-116412D03*
X-96727D03*
Y659500D03*
G54D28*
X22048Y389591D03*
Y399591D03*
Y409591D03*
X32048Y379591D03*
Y389591D03*
Y399591D03*
Y409591D03*
%LPD*%
G75*
G54D10*
X-207265Y366783D03*
X-200516Y396014D03*
X-196148Y515793D03*
Y545793D03*
X-205195Y595655D03*
Y625655D03*
X-187317Y437874D03*
Y467874D03*
X-168290Y357785D03*
X-161541Y387016D03*
X-156148Y515793D03*
Y545793D03*
X-165195Y595655D03*
Y625655D03*
X-147317Y437874D03*
Y467874D03*
X-138746Y668280D03*
X-142402Y698057D03*
X-102701Y702932D03*
X-99044Y673155D03*
X253176Y673381D03*
X257351Y703089D03*
X301225Y438066D03*
Y468066D03*
X292786Y667814D03*
X296962Y697522D03*
X321807Y358367D03*
X316083Y387816D03*
X310109Y516065D03*
Y546065D03*
X319184Y595691D03*
Y625691D03*
X341225Y438066D03*
Y468066D03*
X355348Y395448D03*
X350109Y516065D03*
Y546065D03*
X359184Y595691D03*
Y625691D03*
X361072Y366000D03*
G54D20*
G01X-141974Y556964D02*
Y495284D01*
X-66468Y419778D01*
G01X-21002Y466019D02*
X-109879Y554896D01*
X-122986D01*
G01X-128510Y579821D02*
X-128256Y579567D01*
Y552651D01*
X-89535Y513930D01*
X-74492D01*
G01X-128510Y579821D02*
X-92647D01*
G01X26476Y617680D02*
X-6085Y650241D01*
X-87165D01*
X-107344Y630062D01*
Y610943D01*
X-107944Y610343D01*
X-127797D01*
X-128510Y609630D01*
Y579821D01*
G01X-18260Y466064D02*
X-104708Y552512D01*
Y553810D01*
G01X-103708Y625251D02*
X-82878Y604421D01*
Y591986D01*
X-86604Y588260D01*
X-110232D01*
G01X-103708Y649188D02*
X-106100D01*
X-116412Y659500D01*
G01X-15047Y466280D02*
Y466614D01*
X-87840Y539407D01*
G01X-32867Y409109D02*
X-64510D01*
X-74599Y399020D01*
G01X-68729Y442954D02*
X-79002D01*
G01X-71733Y485424D02*
X-78086D01*
G01X30146Y600622D02*
Y529011D01*
X29546Y528411D01*
X-71994D01*
G01X-54678Y489862D02*
Y477767D01*
X-30748Y453837D01*
G01X-33234Y430113D02*
Y409476D01*
X-32867Y409109D01*
G01X218121Y650409D02*
X162160D01*
X161560Y649809D01*
Y593578D01*
X160960Y592978D01*
X51823D01*
X51223Y592378D01*
Y507527D01*
X-15259Y441045D01*
Y429211D01*
G01X38170Y605025D02*
Y511094D01*
X-7972Y464954D01*
Y459558D01*
X-17579Y449951D01*
X-27645D01*
G01X40410Y596806D02*
Y510572D01*
X-6416Y463746D01*
Y462898D01*
X-5100Y461582D01*
Y460233D01*
X-17857Y447476D01*
X-24496D01*
G01X-25071Y524951D02*
X31747D01*
X32347Y525551D01*
Y693717D01*
X34364Y695734D01*
G01X-5598Y406926D02*
X-11161Y412489D01*
Y435245D01*
X-4985Y441421D01*
X28121D01*
G01X-8247Y416459D02*
X8223D01*
X30959Y439195D01*
G01X307314Y618300D02*
X141025Y452010D01*
X-1336D01*
G01X42520Y654236D02*
Y507003D01*
X-815Y463668D01*
X-2729D01*
G01X9859Y413310D02*
X9970D01*
X33630Y436970D01*
G01X8622Y407011D02*
X10128D01*
X16871Y413754D01*
G01X29311Y425444D02*
Y428821D01*
X50323Y449833D01*
G01X56285Y617680D02*
Y635425D01*
X56885Y636025D01*
X65505D01*
X65596Y636116D01*
G01X165891Y645838D02*
Y587138D01*
X104713Y525960D01*
Y503856D01*
X103795Y502938D01*
X70001D01*
X69401Y502338D01*
Y469002D01*
G01X65596Y636116D02*
X86370D01*
G01X81509Y695734D02*
Y709218D01*
X81367Y709360D01*
G01X130619Y472851D02*
Y484192D01*
X131219Y484792D01*
X138688D01*
G01X154172Y521545D02*
X149585Y516958D01*
Y486400D01*
X143600Y480415D01*
X134274D01*
G01X280701Y461414D02*
X269354Y450067D01*
X160855D01*
G01X266706Y416717D02*
X293747D01*
G01X255244Y479980D02*
X273495D01*
G01X259139Y552033D02*
X287404D01*
X288406Y553035D01*
G54D11*
X-195237Y490443D03*
X-176413Y379052D03*
X-183148Y389760D03*
X-173477Y493897D03*
X-176758Y533445D03*
X-185911Y594753D03*
X-185393Y622730D03*
X-156034Y379052D03*
X-165015Y452795D03*
X-151544Y376116D03*
X-147334Y420620D03*
X-145930Y480638D03*
X-141974Y556964D03*
X-120458Y384751D03*
X-122986Y554896D03*
X-128510Y579821D03*
X-121494Y672295D03*
X-129957Y687837D03*
X-119249Y375598D03*
X-113896Y399085D03*
X-111471Y547881D03*
X-104708Y553810D03*
X-108197Y592508D03*
X-110232Y588260D03*
X-113032Y595616D03*
X-112514Y608051D03*
X-109751Y618413D03*
X-103708Y625251D03*
Y649188D03*
X-94726Y415837D03*
X-97489Y409102D03*
X-95328Y492116D03*
X-92026Y526419D03*
X-87840Y539407D03*
X-92647Y579821D03*
X-77456Y390450D03*
X-74599Y399020D03*
X-68729Y442954D03*
X-79002D03*
X-78819Y469369D03*
X-71733Y485424D03*
X-78086D03*
X-74492Y513930D03*
X-71994Y528411D03*
X-77802Y580074D03*
X-74439Y667127D03*
X-55121Y413187D03*
X-56853Y423381D03*
X-55063Y432589D03*
X-66468Y419778D03*
X-53509Y450092D03*
X-54788Y440019D03*
X-54678Y489862D03*
X-49544Y521275D03*
X-47648Y379425D03*
X-32867Y409109D03*
X-33234Y430113D03*
X-30476Y382397D03*
X-16359Y406833D03*
X-27645Y405818D03*
X-24496Y403898D03*
X-21566Y420229D03*
X-15259Y429211D03*
X-27645Y449951D03*
X-24496Y447476D03*
X-30748Y453837D03*
X-15047Y466280D03*
X-21002Y466019D03*
X-18260Y466064D03*
X-29269Y520927D03*
X-25071Y524951D03*
X-382Y375808D03*
X2503Y391314D03*
X1473Y396761D03*
X-5598Y406926D03*
X-8247Y416459D03*
X-3470Y428416D03*
X-3425Y419061D03*
X-1336Y452010D03*
X-2729Y463668D03*
X-11486Y521011D03*
X9859Y413310D03*
X8622Y407011D03*
X16871Y413754D03*
X9105Y423031D03*
X18038Y438872D03*
X5885Y447540D03*
X12718Y456528D03*
X4738Y504498D03*
X11663Y557604D03*
X17355Y602697D03*
X10104Y594980D03*
X19255Y648462D03*
X34548Y425664D03*
X29228Y417089D03*
X29311Y425444D03*
X28121Y441421D03*
X30959Y439195D03*
X33630Y436970D03*
X35281Y554669D03*
X30146Y600622D03*
X38170Y605025D03*
X26476Y617680D03*
X34364Y695734D03*
X50323Y449833D03*
X39455Y467489D03*
X45462Y460564D03*
X43123Y484274D03*
X40410Y596806D03*
X56285Y617680D03*
X55694Y651571D03*
X42520Y654236D03*
X69401Y469002D03*
X73482Y585600D03*
X65596Y636116D03*
X86370D03*
X88162Y682138D03*
X81509Y695734D03*
X104255Y469736D03*
X92331Y490648D03*
X107504Y598552D03*
X96367Y658496D03*
X125167Y469369D03*
X142734Y424645D03*
X144061Y472854D03*
X130619Y472851D03*
X138688Y484792D03*
X134274Y480415D03*
X138742Y506241D03*
X144461Y589227D03*
X135481Y646390D03*
X160855Y450067D03*
X157068Y630156D03*
X149368Y658496D03*
X158795Y683347D03*
X165891Y645838D03*
X187982Y412729D03*
X195926Y652780D03*
X205079Y383024D03*
X200761Y505468D03*
X218121Y650409D03*
X240655Y470237D03*
X249462Y575756D03*
X268632Y423609D03*
X266706Y416717D03*
X255244Y479980D03*
X259139Y552033D03*
X280701Y461414D03*
X273495Y479980D03*
X293747Y416717D03*
X288406Y553035D03*
X307314Y618300D03*
X337711Y388551D03*
X329594Y453485D03*
X346864Y423781D03*
G54D21*
G01X-55121Y413187D02*
X-133218Y491284D01*
Y613987D01*
X-132418Y614787D01*
X-116847D01*
X-116047Y615587D01*
Y644367D01*
X-116847Y645167D01*
X-125318D01*
X-126118Y645967D01*
Y666327D01*
X-125318Y667127D01*
X-74439D01*
G01X71524Y712588D02*
X71315Y712379D01*
Y700292D01*
X70515Y699492D01*
X49025D01*
X38953Y689420D01*
Y666965D01*
X45640Y660278D01*
Y507716D01*
X-27645Y434431D01*
Y405818D01*
G01X46721Y675974D02*
X47704Y674991D01*
Y507138D01*
X-24496Y434938D01*
Y403898D01*
G54D12*
X-175777Y414748D03*
X-180996Y570485D03*
X20567Y685383D03*
X132972Y685276D03*
X329954Y414856D03*
X334823Y570554D03*
G54D22*
G01X-156148Y511837D02*
Y515793D01*
G01D02*
Y519749D01*
G01X-160104Y515793D02*
X-156148D01*
G01D02*
X-152192D01*
G01X-165195Y591699D02*
Y595655D01*
G01D02*
Y599611D01*
G01X-169151Y595655D02*
X-165195D01*
G01D02*
X-161239D01*
G01X-147317Y433918D02*
Y437874D01*
G01D02*
Y441830D01*
G01X-151273Y437874D02*
X-147317D01*
G01D02*
X-143361D01*
G01X-106570Y597965D02*
Y602413D01*
G01D02*
Y606861D01*
G01X-111018Y602413D02*
X-106570D01*
G01D02*
X-102121D01*
G01X-103000Y673155D02*
X-99044D01*
G01X-96727Y655051D02*
Y659500D01*
G01D02*
Y663948D01*
G01X-101175Y659500D02*
X-96727D01*
G01D02*
X-92279D01*
G01X-99044Y669199D02*
Y673155D01*
G01D02*
Y677111D01*
G01Y673155D02*
X-95088D01*
G01X-43496Y674944D02*
Y679394D01*
G01D02*
Y683844D01*
G01X-47946Y679394D02*
X-43496D01*
G01D02*
X-39046D01*
G01X32048Y395241D02*
Y399591D01*
G01Y385241D02*
Y389591D01*
G01D02*
Y393941D01*
G01X27698Y389591D02*
X32048D01*
G01D02*
X36398D01*
G01X32048Y405241D02*
Y409591D01*
G01D02*
Y413941D01*
G01X27698Y409591D02*
X32048D01*
G01D02*
X36398D01*
G01X32048Y399591D02*
Y403941D01*
G01X27698Y399591D02*
X32048D01*
G01D02*
X36398D01*
G01X73493Y659124D02*
Y663277D01*
G01X69340Y659124D02*
X73493D01*
G01D02*
X77646D01*
G01X71524Y647018D02*
Y651171D01*
G01X67371D02*
X71524D01*
G01D02*
X75677D01*
G01X97188Y512165D02*
Y516615D01*
G01D02*
Y521065D01*
G01X92738Y516615D02*
X97188D01*
G01D02*
X101638D01*
G01X104438Y692490D02*
Y696643D01*
G01X100285D02*
X104438D01*
G01D02*
X108591D01*
G01X114172Y517095D02*
Y521545D01*
G01D02*
Y525995D01*
G01X109722Y521545D02*
X114172D01*
G01D02*
X118622D01*
G01X195337Y675350D02*
Y679800D01*
G01D02*
Y684250D01*
G01X190887Y679800D02*
X195337D01*
G01D02*
X199787D01*
G01X292786Y663858D02*
Y667814D01*
G01D02*
Y671770D01*
G01X288830Y667814D02*
X292786D01*
G01D02*
X296743D01*
G01X316083Y383860D02*
Y387816D01*
G01D02*
Y391772D01*
G01X312127Y387816D02*
X316083D01*
G01D02*
X320039D01*
G01X337269Y438066D02*
X341225D01*
G01Y434110D02*
Y438066D01*
G01D02*
Y442022D01*
G01Y438066D02*
X345181D01*
G01X350109Y512109D02*
Y516065D01*
G01D02*
Y520021D01*
G01X346153Y516065D02*
X350109D01*
G01D02*
X354065D01*
G54D13*
X-129010Y631941D03*
X-84128D03*
G54D14*
X-106570Y602413D03*
X-116412D03*
Y659500D03*
X-96727Y602413D03*
Y659500D03*
G54D15*
X-43496Y669394D03*
X57188Y516615D03*
X154172Y521545D03*
X195337Y669800D03*
G54D16*
X-43496Y679394D03*
X67188Y516615D03*
X77188D03*
X87188D03*
X97188D03*
X124172Y521545D03*
X114172D03*
X144172D03*
X134172D03*
X195337Y679800D03*
G54D17*
X22048Y379591D03*
G54D18*
Y389591D03*
Y399591D03*
Y409591D03*
X32048Y379591D03*
Y389591D03*
Y399591D03*
Y409591D03*
G54D19*
X46721Y675974D03*
Y687785D03*
X71524Y651171D03*
X73493Y659124D03*
X62469Y687785D03*
X71524Y712588D03*
X83335Y651171D03*
X81367Y709360D03*
X108138Y675974D03*
Y687785D03*
X104438Y696643D03*
M02*
