G04 ================== begin FILE IDENTIFICATION RECORD ==================*
G04 Layout Name:  JOYCAR_ARDUINO_BASIC_V0_11.brd*
G04 Film Name:    JOYCAR_ARDUINO_BASIC_V0SSB*
G04 File Format:  Gerber RS274X*
G04 File Origin:  Cadence Allegro 17.2-P019*
G04 Origin Date:  Mon Mar 28 15:32:30 2022*
G04 *
G04 Layer:  BOARD GEOMETRY/SILKSCREEN_BOTTOM*
G04 Layer:  PACKAGE GEOMETRY/SILKSCREEN_BOTTOM*
G04 Layer:  REF DES/SILKSCREEN_BOTTOM*
G04 *
G04 Offset:    (0.000 0.000)*
G04 Mirror:    No*
G04 Mode:      Positive*
G04 Rotation:  0*
G04 FullContactRelief:  No*
G04 UndefLineWidth:     1.000*
G04 ================== end FILE IDENTIFICATION RECORD ====================*
%FSLAX25Y25*MOIN*%
%IR0*IPPOS*OFA0.00000B0.00000*MIA0B0*SFA1.00000B1.00000*%
%ADD10C,.005*%
%ADD11C,.006*%
%ADD12C,.008*%
%ADD13C,.003937*%
%ADD14C,.007874*%
%ADD15C,.01*%
%ADD16C,.001*%
G75*
%LPD*%
G75*
G54D10*
G01X-143276Y363302D02*
X-123590D01*
G01X-143276Y382986D02*
X-123590D01*
G01X-144816Y595282D02*
X-125132D01*
G01X-144816Y614968D02*
X-125132D01*
G01X-123236Y440756D02*
X-103552D01*
G01X-123236Y460442D02*
X-103552D01*
G01X-133642Y518598D02*
X-113957D01*
G01X-133642Y538284D02*
X-113957D01*
G01X-79308Y670812D02*
X-59622D01*
G01X-79308Y690497D02*
X-59622D01*
G01X-27876Y467215D02*
X-12522D01*
G01Y486743D02*
X-27876D01*
G01X215872Y670426D02*
X235556D01*
G01X215872Y690110D02*
X235556D01*
G01X261343Y436519D02*
X281028D01*
G01X261343Y456204D02*
X281028D01*
G01X278684Y363686D02*
X298368D01*
G01X278684Y383372D02*
X298368D01*
G01X269434Y517827D02*
X289120D01*
G01X269434Y537512D02*
X289120D01*
G01X281380Y595282D02*
X301066D01*
G01X281380Y614968D02*
X301066D01*
G54D11*
G01X-137745Y394983D02*
X-145839D01*
G01X-137744Y408814D02*
X-145838D01*
G01X-137744Y403870D02*
X-145838D01*
G01X-137745Y399927D02*
X-145839D01*
G01X-140486Y565651D02*
X-148580D01*
G01X-140486Y560707D02*
X-148580D01*
G01X-140588Y571468D02*
X-148682D01*
G01X-140588Y576412D02*
X-148682D01*
G01X-138964Y649860D02*
X-147058D01*
G01X-138964Y654804D02*
X-147058D01*
G01X-117638Y421153D02*
X-125732D01*
G01X-117638Y416209D02*
X-125732D01*
G01X-117639Y426868D02*
X-125733D01*
G01X-117639Y431812D02*
X-125733D01*
G01X-128199Y494874D02*
X-136293D01*
G01X-128199Y489930D02*
X-136293D01*
G01X-128200Y500387D02*
X-136294D01*
G01X-128200Y505331D02*
X-136294D01*
G01X-121498Y565445D02*
X-129592D01*
G01X-121498Y560501D02*
X-129592D01*
G01X-121904Y571468D02*
X-129998D01*
G01X-121904Y576412D02*
X-129998D01*
G01X-103220Y565851D02*
X-111314D01*
G01X-103220Y560907D02*
X-111314D01*
G01X-103626Y571874D02*
X-111720D01*
G01X-103626Y576818D02*
X-111720D01*
G01X-86160Y565039D02*
X-94254D01*
G01X-86160Y560095D02*
X-94254D01*
G01X-86160Y571874D02*
X-94254D01*
G01X-86160Y576818D02*
X-94254D01*
G01X-72991Y409395D02*
X-81085D01*
G01X-72991Y404451D02*
X-81085D01*
G01X-72991Y415757D02*
X-81085D01*
G01X-72991Y410813D02*
X-81085D01*
G01X-72991Y422537D02*
X-81085D01*
G01X-72991Y417593D02*
X-81085D01*
G01X-67986Y432979D02*
X-59892D01*
G01X-67986Y437923D02*
X-59892D01*
G01X-61718Y490562D02*
X-71780D01*
G01X-61718Y497673D02*
X-71780D01*
G01X-62196Y502011D02*
X-70290D01*
G01X-62196Y506955D02*
X-70290D01*
G01X-70235Y516402D02*
X-62141D01*
G01X-70235Y511458D02*
X-62141D01*
G01X-67883Y648641D02*
X-75977D01*
G01X-67883Y653585D02*
X-75977D01*
G01X-68289Y657171D02*
X-76383D01*
G01X-68289Y662115D02*
X-76383D01*
G01X-61093Y467984D02*
X-61093Y459890D01*
G01X-66037Y467984D02*
Y459890D01*
G01X-61080Y484208D02*
Y476114D01*
G01X-66023Y484208D02*
X-66024Y476114D01*
G01X-59678Y648263D02*
X-51584D01*
G01X-59678Y653207D02*
X-51584D01*
G01X-32592Y378800D02*
X-40686D01*
G01X-32592Y373856D02*
X-40686D01*
G01X-27586Y373421D02*
X-16090D01*
Y387673D01*
X-27586D01*
Y373421D01*
G01X-14396Y453099D02*
Y461193D01*
G01X-12912Y495767D02*
X-27700D01*
G01X-12912Y504255D02*
X-27700D01*
G01X-10382Y660143D02*
X-18476D01*
G01X-10382Y665087D02*
X-18476D01*
G01X-10409Y668950D02*
X-18503D01*
G01X-10409Y673894D02*
X-18503D01*
G01X-12015Y386387D02*
Y378293D01*
G01X-7071Y386387D02*
Y378293D01*
G01X1950Y386571D02*
Y378477D01*
G01X-2994Y386571D02*
Y378477D01*
G01X-9452Y453099D02*
Y461193D01*
G01X10600Y383710D02*
Y391804D01*
G01X5656Y383710D02*
Y391804D01*
G01X15550Y429714D02*
X23644D01*
G01X15406Y421533D02*
X23500D01*
G01X15406Y416589D02*
X23500D01*
G01X15478Y427916D02*
X23572D01*
G01X15478Y422972D02*
X23572D01*
G01X15550Y434658D02*
X23644D01*
G01X20039Y482800D02*
X30101D01*
G01X20039Y489910D02*
X30101D01*
G01X29600Y459362D02*
X21506D01*
G01X29600Y464306D02*
X21506D01*
G01X29600Y470735D02*
X21506D01*
G01X29600Y475679D02*
X21506D01*
G01X21259Y493188D02*
X29353D01*
G01X21259Y498132D02*
X29353D01*
G01X49035Y490237D02*
X49349Y472290D01*
G01D02*
X50162Y471504D01*
G01X64160Y471748D02*
X64897Y472511D01*
G01D02*
X64947Y472512D01*
G01D02*
X64633Y490509D01*
G01X71842Y618249D02*
X63748D01*
G01X71842Y613305D02*
X63748D01*
G01X71842Y626302D02*
X63748D01*
G01X71842Y631246D02*
X63748D01*
G01X92964Y618655D02*
X84870D01*
G01X92964Y613711D02*
X84870D01*
G01X92964Y625896D02*
X84870D01*
G01X92964Y630840D02*
X84870D01*
G01X135206Y493482D02*
X127112D01*
G01X135206Y498426D02*
X127112D01*
G01X145360Y486576D02*
X137266D01*
G01X145360Y491520D02*
X137266D01*
G01X155515Y482178D02*
X147421D01*
G01X155515Y477234D02*
X147421D01*
G01X164482Y656158D02*
X172576D01*
G01X164482Y661102D02*
X172576D01*
G01X164480Y672066D02*
X172574D01*
G01X164480Y667122D02*
X172574D01*
G01X221753Y648035D02*
X229847D01*
G01X221753Y652979D02*
X229847D01*
G01X221751Y661303D02*
X229845D01*
G01X221751Y656359D02*
X229845D01*
G01X277920Y486646D02*
X286014D01*
G01X277885Y482623D02*
X285979D01*
G01X277885Y477679D02*
X285979D01*
G01X277920Y491590D02*
X286014D01*
G01X292832Y397218D02*
X300926D01*
G01X292629Y407575D02*
X300723D01*
G01X292629Y412519D02*
X300723D01*
G01X292832Y402162D02*
X300926D01*
G01X286943Y557251D02*
X295037D01*
G01X286945Y566799D02*
X295039D01*
G01X286945Y571743D02*
X295039D01*
G01X286943Y562195D02*
X295037D01*
G01X300755Y622242D02*
X308849D01*
G01X300755Y627186D02*
X308849D01*
G01X301159Y636932D02*
X309253D01*
G01X301159Y631988D02*
X309253D01*
G54D12*
G01X-2448Y438507D02*
X-40244D01*
Y400711D01*
X-2448D01*
Y438507D01*
G01X104172Y531545D02*
Y509045D01*
G01D02*
X164172D01*
G01Y531545D02*
X104172D01*
G01X164172Y521545D02*
Y531545D01*
G01Y509045D02*
Y521545D01*
G54D13*
G01X-61484Y523728D02*
Y519228D01*
X-71184D01*
X-71684Y519728D01*
Y523228D01*
X-71084Y523828D01*
X-61584D01*
X-61484Y523728D01*
G01X53808Y648415D02*
X67587D01*
G01X43965Y658258D02*
X53808Y648415D01*
G01X43965Y672037D02*
X43965Y658258D01*
G01Y679911D02*
X43965Y683848D01*
G01Y691722D02*
X43965Y705502D01*
G01X53808Y715344D02*
X67587Y715344D01*
G01X43965Y705502D02*
X53808Y715344D01*
G01X87272Y648415D02*
X101052Y648415D01*
G01X75461Y715344D02*
X101052D01*
G01Y648415D02*
X110894Y658258D01*
G01X101052Y715344D02*
X110894Y705502D01*
G01X127872Y482068D02*
Y477344D01*
X125510D01*
Y482068D01*
X127872D01*
G01X110894Y658258D02*
X110894Y672037D01*
G01Y679911D02*
Y683848D01*
G01Y705502D02*
X110894Y691722D01*
G54D14*
G01X-209132Y625655D02*
G02X-209526I-197J0D01*
G01D02*
G02X-209132I197J0D01*
G01D02*
G02X-209526I-197J0D01*
G01X-169651Y353291D02*
X-208012Y362147D01*
G01X-206054Y370625D02*
X-201272Y391340D01*
G01X-204352Y396900D02*
G02X-204736Y396988I-192J44D01*
G01D02*
G02X-204352Y396900I192J-44D01*
G01D02*
G02X-204736Y396988I-192J44D01*
G01X-199155Y400508D02*
X-160794Y391652D01*
G01X-191254Y467874D02*
G02X-191648I-197J0D01*
G01D02*
G02X-191254I197J0D01*
G01D02*
G02X-191648I-197J0D01*
G01X-195833Y519809D02*
Y541069D01*
G01X-156463Y511108D02*
X-195833D01*
G01Y550478D02*
X-156463D01*
G01X-200085Y545793D02*
G02X-200479I-197J0D01*
G01D02*
G02X-200085I197J0D01*
G01D02*
G02X-200479I-197J0D01*
G01X-165510Y590970D02*
X-204880D01*
G01Y599671D02*
Y620931D01*
G01Y630340D02*
X-165510D01*
G01X-147632Y433189D02*
X-187002D01*
G01Y441890D02*
Y463150D01*
G01Y472559D02*
X-147632D01*
G01X-162911Y382484D02*
X-167693Y361769D01*
G01X-156463Y541069D02*
Y519809D01*
G01X-165510Y620931D02*
Y599671D01*
G01X-147632Y463150D02*
Y441890D01*
G01X-138923Y672305D02*
X-141514Y693406D01*
G01X-146310Y697577D02*
G02X-146701Y697529I-195J-24D01*
G01D02*
G02X-146310Y697577I195J24D01*
G01D02*
G02X-146701Y697529I-195J-24D01*
G01X-142661Y702745D02*
X-103584Y707543D01*
G01X-98786Y668467D02*
X-137863Y663669D01*
G01X-117409Y380821D02*
G03I-394J0D01*
G01X-107775Y536118D02*
G03I-394J0D01*
G01X-118950Y612802D02*
G03I-394J0D01*
G01X-97370Y458276D02*
G03I-394J0D01*
G01X-102437Y698204D02*
X-99846Y677103D01*
G01X-53441Y688331D02*
G03I-394J0D01*
G01X241738Y687945D02*
G03I-394J0D01*
G01X254047Y677314D02*
X257005Y698367D01*
G01X291823Y663219D02*
X252836Y668698D01*
G01X258315Y707685D02*
X297302Y702205D01*
G01X253452Y703637D02*
G02X253062Y703692I-195J27D01*
G01D02*
G02X253452Y703637I195J-27D01*
G01D02*
G02X253062Y703692I-195J27D01*
G01X287209Y454038D02*
G03I-394J0D01*
G01X304550Y381206D02*
G03I-394J0D01*
G01X340910Y433381D02*
X301540D01*
G01Y442082D02*
Y463342D01*
G01X297288Y468066D02*
G02X296894I-197J0D01*
G01D02*
G02X297288I197J0D01*
G01D02*
G02X296894I-197J0D01*
G01X301540Y472751D02*
X340910D01*
G01X295301Y535346D02*
G03I-394J0D01*
G01X295992Y692888D02*
X293034Y671834D01*
G01X321215Y363065D02*
X317158Y383934D01*
G01X315498Y392475D02*
X354145Y399987D01*
G01X310424Y520081D02*
Y541341D01*
G01X349794Y511380D02*
X310424D01*
G01Y550750D02*
X349794D01*
G01X306172Y546065D02*
G02X305778I-197J0D01*
G01D02*
G02X306172I197J0D01*
G01D02*
G02X305778I-197J0D01*
G01X358869Y591006D02*
X319499D01*
G01Y599707D02*
Y620967D01*
G01X315247Y625691D02*
G02X314853I-197J0D01*
G01D02*
G02X315247I197J0D01*
G01D02*
G02X314853I-197J0D01*
G01X307247Y612802D02*
G03I-394J0D01*
G01X319499Y630376D02*
X358869D01*
G01X361657Y361341D02*
X323010Y353828D01*
G01X355805Y391446D02*
X359862Y370577D01*
G01X340910Y463342D02*
Y442082D01*
G01X349794Y541341D02*
Y520081D01*
G01X364937Y366751D02*
G02X365323Y366826I193J38D01*
G01D02*
G02X364937Y366751I-193J-38D01*
G01D02*
G02X365323Y366826I193J38D01*
G01X358869Y620967D02*
Y599707D01*
G54D15*
G01X-4485Y435357D02*
G03I-1113J0D01*
G54D16*
G01X-152392Y606632D02*
Y604410D01*
X-152545Y603945D01*
X-152852Y603635D01*
X-153235Y603532D01*
X-153618Y603635D01*
X-153925Y603945D01*
X-154078Y604410D01*
Y606632D01*
G01X-156335Y603532D02*
X-156603Y603584D01*
X-156910Y603739D01*
X-157102Y603997D01*
X-157178Y604359D01*
X-157102Y604720D01*
X-156872Y605030D01*
X-156527Y605185D01*
X-156143D01*
X-155913Y605289D01*
X-155722Y605547D01*
X-155645Y605909D01*
X-155760Y606270D01*
X-156028Y606529D01*
X-156335Y606632D01*
X-156642Y606529D01*
X-156910Y606270D01*
X-157025Y605909D01*
X-156948Y605547D01*
X-156757Y605289D01*
X-156527Y605185D01*
X-156143D01*
X-155798Y605030D01*
X-155568Y604720D01*
X-155492Y604359D01*
X-155568Y603997D01*
X-155760Y603739D01*
X-156067Y603584D01*
X-156335Y603532D01*
G01X-132030Y419789D02*
X-131800Y419944D01*
X-131532Y420047D01*
X-131225D01*
X-130880Y419892D01*
X-130612Y419634D01*
X-130420Y419324D01*
X-130267Y418807D01*
X-130229Y418342D01*
X-130305Y417877D01*
X-130420Y417567D01*
X-130650Y417257D01*
X-130919Y417050D01*
X-131187Y416947D01*
X-131455D01*
X-131724Y417050D01*
X-131954Y417205D01*
X-132145Y417412D01*
G01X-133559Y419530D02*
X-133789Y419840D01*
X-134057Y419995D01*
X-134364Y420047D01*
X-134747Y419944D01*
X-135015Y419685D01*
X-135092Y419375D01*
X-135054Y419065D01*
X-134900Y418807D01*
X-134134Y418290D01*
X-133789Y417929D01*
X-133559Y417412D01*
X-133482Y416947D01*
X-135092D01*
G01X-136659Y418239D02*
X-136927Y418600D01*
X-137157Y418807D01*
X-137464Y418910D01*
X-137732Y418807D01*
X-137924Y418600D01*
X-138077Y418290D01*
X-138115Y417929D01*
X-138077Y417619D01*
X-137924Y417309D01*
X-137694Y417050D01*
X-137425Y416947D01*
X-137119Y417050D01*
X-136850Y417360D01*
X-136697Y417825D01*
X-136659Y418342D01*
X-136735Y419014D01*
X-136850Y419375D01*
X-137042Y419737D01*
X-137310Y419995D01*
X-137579Y420047D01*
X-137847Y419944D01*
X-138039Y419685D01*
G01X-140966Y493308D02*
X-140736Y493463D01*
X-140468Y493566D01*
X-140161D01*
X-139816Y493411D01*
X-139548Y493153D01*
X-139356Y492843D01*
X-139203Y492326D01*
X-139165Y491861D01*
X-139241Y491396D01*
X-139356Y491086D01*
X-139586Y490776D01*
X-139855Y490569D01*
X-140123Y490466D01*
X-140391D01*
X-140660Y490569D01*
X-140890Y490724D01*
X-141081Y490931D01*
G01X-142495Y493049D02*
X-142725Y493359D01*
X-142993Y493514D01*
X-143300Y493566D01*
X-143683Y493463D01*
X-143951Y493204D01*
X-144028Y492894D01*
X-143990Y492584D01*
X-143836Y492326D01*
X-143070Y491809D01*
X-142725Y491448D01*
X-142495Y490931D01*
X-142418Y490466D01*
X-144028D01*
G01X-146783D02*
Y493566D01*
X-145365Y491344D01*
X-147281D01*
G01X-139763Y500719D02*
Y503819D01*
X-140722D01*
X-141028Y503664D01*
X-141220Y503457D01*
X-141297Y503044D01*
X-141220Y502631D01*
X-140990Y502372D01*
X-140722Y502217D01*
X-139763D01*
G01X-140722D02*
X-141297Y500719D01*
G01X-142902Y503302D02*
X-143132Y503612D01*
X-143400Y503767D01*
X-143707Y503819D01*
X-144090Y503716D01*
X-144358Y503457D01*
X-144435Y503147D01*
X-144397Y502837D01*
X-144243Y502579D01*
X-143477Y502062D01*
X-143132Y501701D01*
X-142902Y501184D01*
X-142825Y500719D01*
X-144435D01*
G01X-146730D02*
Y503819D01*
X-146270Y503199D01*
G01Y500719D02*
X-147190D01*
G01X-140202Y529948D02*
Y527726D01*
X-140355Y527261D01*
X-140662Y526951D01*
X-141045Y526848D01*
X-141428Y526951D01*
X-141735Y527261D01*
X-141888Y527726D01*
Y529948D01*
G01X-144068Y526848D02*
X-144145Y527520D01*
X-144260Y528088D01*
X-144413Y528605D01*
X-144605Y529173D01*
X-144912Y529948D01*
X-143378D01*
G01X-142490Y558398D02*
X-142260Y558553D01*
X-141992Y558656D01*
X-141685D01*
X-141340Y558501D01*
X-141072Y558243D01*
X-140880Y557933D01*
X-140727Y557416D01*
X-140689Y556951D01*
X-140765Y556486D01*
X-140880Y556176D01*
X-141110Y555866D01*
X-141379Y555659D01*
X-141647Y555556D01*
X-141915D01*
X-142184Y555659D01*
X-142414Y555814D01*
X-142605Y556021D01*
G01X-144019Y558139D02*
X-144249Y558449D01*
X-144517Y558604D01*
X-144824Y558656D01*
X-145207Y558553D01*
X-145475Y558294D01*
X-145552Y557984D01*
X-145514Y557674D01*
X-145360Y557416D01*
X-144594Y556899D01*
X-144249Y556538D01*
X-144019Y556021D01*
X-143942Y555556D01*
X-145552D01*
G01X-147004Y556021D02*
X-147234Y555763D01*
X-147502Y555608D01*
X-147847Y555556D01*
X-148192Y555659D01*
X-148460Y555866D01*
X-148652Y556228D01*
X-148690Y556641D01*
X-148614Y557054D01*
X-148422Y557313D01*
X-148154Y557519D01*
X-147885Y557571D01*
X-147617Y557519D01*
X-147272Y557313D01*
X-147387Y558656D01*
X-148422D01*
G01X-140373Y578096D02*
Y581196D01*
X-141332D01*
X-141638Y581041D01*
X-141830Y580834D01*
X-141907Y580421D01*
X-141830Y580008D01*
X-141600Y579749D01*
X-141332Y579594D01*
X-140373D01*
G01X-141332D02*
X-141907Y578096D01*
G01X-143512Y580679D02*
X-143742Y580989D01*
X-144010Y581144D01*
X-144317Y581196D01*
X-144700Y581093D01*
X-144968Y580834D01*
X-145045Y580524D01*
X-145007Y580214D01*
X-144853Y579956D01*
X-144087Y579439D01*
X-143742Y579078D01*
X-143512Y578561D01*
X-143435Y578096D01*
X-145045D01*
G01X-147340Y581196D02*
X-147033Y581093D01*
X-146803Y580834D01*
X-146650Y580524D01*
X-146535Y580111D01*
X-146497Y579646D01*
X-146535Y579181D01*
X-146650Y578768D01*
X-146803Y578458D01*
X-147033Y578199D01*
X-147340Y578096D01*
X-147647Y578199D01*
X-147877Y578458D01*
X-148030Y578768D01*
X-148145Y579181D01*
X-148183Y579646D01*
X-148145Y580111D01*
X-148030Y580524D01*
X-147877Y580834D01*
X-147647Y581093D01*
X-147340Y581196D01*
G01X-131152Y388258D02*
Y386036D01*
X-131305Y385571D01*
X-131612Y385261D01*
X-131995Y385158D01*
X-132378Y385261D01*
X-132685Y385571D01*
X-132838Y386036D01*
Y388258D01*
G01X-134252Y385623D02*
X-134482Y385365D01*
X-134750Y385210D01*
X-135095Y385158D01*
X-135440Y385261D01*
X-135708Y385468D01*
X-135900Y385830D01*
X-135938Y386243D01*
X-135862Y386656D01*
X-135670Y386915D01*
X-135402Y387121D01*
X-135133Y387173D01*
X-134865Y387121D01*
X-134520Y386915D01*
X-134635Y388258D01*
X-135670D01*
G01X-127172Y395722D02*
Y398822D01*
X-128131D01*
X-128437Y398667D01*
X-128629Y398460D01*
X-128706Y398047D01*
X-128629Y397634D01*
X-128399Y397375D01*
X-128131Y397220D01*
X-127172D01*
G01X-128131D02*
X-128706Y395722D01*
G01X-130311Y398305D02*
X-130541Y398615D01*
X-130809Y398770D01*
X-131116Y398822D01*
X-131499Y398719D01*
X-131767Y398460D01*
X-131844Y398150D01*
X-131806Y397840D01*
X-131652Y397582D01*
X-130886Y397065D01*
X-130541Y396704D01*
X-130311Y396187D01*
X-130234Y395722D01*
X-131844D01*
G01X-133296Y396342D02*
X-133526Y395980D01*
X-133832Y395774D01*
X-134177Y395722D01*
X-134484Y395774D01*
X-134791Y396032D01*
X-134982Y396342D01*
X-135021Y396652D01*
X-134944Y397014D01*
X-134676Y397272D01*
X-134407Y397375D01*
X-134062D01*
G01X-134407D02*
X-134637Y397530D01*
X-134829Y397789D01*
X-134906Y398099D01*
X-134829Y398409D01*
X-134637Y398667D01*
X-134292Y398822D01*
X-133947Y398770D01*
X-133602Y398564D01*
G01X-128781Y408060D02*
X-128551Y408215D01*
X-128283Y408318D01*
X-127976D01*
X-127631Y408163D01*
X-127363Y407905D01*
X-127171Y407595D01*
X-127018Y407078D01*
X-126980Y406613D01*
X-127056Y406148D01*
X-127171Y405838D01*
X-127401Y405528D01*
X-127670Y405321D01*
X-127938Y405218D01*
X-128206D01*
X-128475Y405321D01*
X-128705Y405476D01*
X-128896Y405683D01*
G01X-130310Y407801D02*
X-130540Y408111D01*
X-130808Y408266D01*
X-131115Y408318D01*
X-131498Y408215D01*
X-131766Y407956D01*
X-131843Y407646D01*
X-131805Y407336D01*
X-131651Y407078D01*
X-130885Y406561D01*
X-130540Y406200D01*
X-130310Y405683D01*
X-130233Y405218D01*
X-131843D01*
G01X-134061D02*
X-134138Y405890D01*
X-134253Y406458D01*
X-134406Y406975D01*
X-134598Y407543D01*
X-134905Y408318D01*
X-133371D01*
G01X-129609Y427607D02*
Y430707D01*
X-130568D01*
X-130874Y430552D01*
X-131066Y430345D01*
X-131143Y429932D01*
X-131066Y429519D01*
X-130836Y429260D01*
X-130568Y429105D01*
X-129609D01*
G01X-130568D02*
X-131143Y427607D01*
G01X-132748Y430190D02*
X-132978Y430500D01*
X-133246Y430655D01*
X-133553Y430707D01*
X-133936Y430604D01*
X-134204Y430345D01*
X-134281Y430035D01*
X-134243Y429725D01*
X-134089Y429467D01*
X-133323Y428950D01*
X-132978Y428589D01*
X-132748Y428072D01*
X-132671Y427607D01*
X-134281D01*
G01X-135848Y430190D02*
X-136078Y430500D01*
X-136346Y430655D01*
X-136653Y430707D01*
X-137036Y430604D01*
X-137304Y430345D01*
X-137381Y430035D01*
X-137343Y429725D01*
X-137189Y429467D01*
X-136423Y428950D01*
X-136078Y428589D01*
X-135848Y428072D01*
X-135771Y427607D01*
X-137381D01*
G01X-129594Y451903D02*
Y449681D01*
X-129747Y449216D01*
X-130054Y448906D01*
X-130437Y448803D01*
X-130820Y448906D01*
X-131127Y449216D01*
X-131280Y449681D01*
Y451903D01*
G01X-132809Y450095D02*
X-133077Y450456D01*
X-133307Y450663D01*
X-133614Y450766D01*
X-133882Y450663D01*
X-134074Y450456D01*
X-134227Y450146D01*
X-134265Y449785D01*
X-134227Y449475D01*
X-134074Y449165D01*
X-133844Y448906D01*
X-133575Y448803D01*
X-133269Y448906D01*
X-133000Y449216D01*
X-132847Y449681D01*
X-132809Y450198D01*
X-132885Y450870D01*
X-133000Y451231D01*
X-133192Y451593D01*
X-133460Y451851D01*
X-133729Y451903D01*
X-133997Y451800D01*
X-134189Y451541D01*
G01X-123705Y558599D02*
X-123475Y558754D01*
X-123207Y558857D01*
X-122900D01*
X-122555Y558702D01*
X-122287Y558444D01*
X-122095Y558134D01*
X-121942Y557617D01*
X-121904Y557152D01*
X-121980Y556687D01*
X-122095Y556377D01*
X-122325Y556067D01*
X-122594Y555860D01*
X-122862Y555757D01*
X-123130D01*
X-123399Y555860D01*
X-123629Y556015D01*
X-123820Y556222D01*
G01X-125962Y555757D02*
Y558857D01*
X-125502Y558237D01*
G01Y555757D02*
X-126422D01*
G01X-128334Y558340D02*
X-128564Y558650D01*
X-128832Y558805D01*
X-129139Y558857D01*
X-129522Y558754D01*
X-129790Y558495D01*
X-129867Y558185D01*
X-129829Y557875D01*
X-129675Y557617D01*
X-128909Y557100D01*
X-128564Y556739D01*
X-128334Y556222D01*
X-128257Y555757D01*
X-129867D01*
G01X-123164Y578096D02*
Y581196D01*
X-124123D01*
X-124429Y581041D01*
X-124621Y580834D01*
X-124698Y580421D01*
X-124621Y580008D01*
X-124391Y579749D01*
X-124123Y579594D01*
X-123164D01*
G01X-124123D02*
X-124698Y578096D01*
G01X-127031D02*
X-127299Y578148D01*
X-127606Y578303D01*
X-127798Y578561D01*
X-127874Y578923D01*
X-127798Y579284D01*
X-127568Y579594D01*
X-127223Y579749D01*
X-126839D01*
X-126609Y579853D01*
X-126418Y580111D01*
X-126341Y580473D01*
X-126456Y580834D01*
X-126724Y581093D01*
X-127031Y581196D01*
X-127338Y581093D01*
X-127606Y580834D01*
X-127721Y580473D01*
X-127644Y580111D01*
X-127453Y579853D01*
X-127223Y579749D01*
X-126839D01*
X-126494Y579594D01*
X-126264Y579284D01*
X-126188Y578923D01*
X-126264Y578561D01*
X-126456Y578303D01*
X-126763Y578148D01*
X-127031Y578096D01*
G01X-127211Y650395D02*
Y653495D01*
X-128667D01*
G01X-128131Y651997D02*
X-127211D01*
G01X-131346Y652048D02*
X-131499Y652203D01*
X-131614Y652462D01*
X-131691Y652823D01*
X-131614Y653133D01*
X-131461Y653340D01*
X-131192Y653495D01*
X-130157D01*
Y650395D01*
X-131422D01*
X-131691Y650602D01*
X-131844Y650912D01*
X-131921Y651273D01*
X-131844Y651635D01*
X-131614Y651945D01*
X-131346Y652048D01*
X-130157D01*
G01X-133411Y652978D02*
X-133641Y653288D01*
X-133909Y653443D01*
X-134216Y653495D01*
X-134599Y653392D01*
X-134867Y653133D01*
X-134944Y652823D01*
X-134906Y652513D01*
X-134752Y652255D01*
X-133986Y651738D01*
X-133641Y651377D01*
X-133411Y650860D01*
X-133334Y650395D01*
X-134944D01*
G01X-105021Y559004D02*
X-104791Y559159D01*
X-104523Y559262D01*
X-104216D01*
X-103871Y559107D01*
X-103603Y558849D01*
X-103411Y558539D01*
X-103258Y558022D01*
X-103220Y557557D01*
X-103296Y557092D01*
X-103411Y556782D01*
X-103641Y556472D01*
X-103910Y556265D01*
X-104178Y556162D01*
X-104446D01*
X-104715Y556265D01*
X-104945Y556420D01*
X-105136Y556627D01*
G01X-107278Y556162D02*
Y559262D01*
X-106818Y558642D01*
G01Y556162D02*
X-107738D01*
G01X-110378D02*
Y559262D01*
X-109918Y558642D01*
G01Y556162D02*
X-110838D01*
G01X-105293Y578705D02*
Y581805D01*
X-106252D01*
X-106558Y581650D01*
X-106750Y581443D01*
X-106827Y581030D01*
X-106750Y580617D01*
X-106520Y580358D01*
X-106252Y580203D01*
X-105293D01*
G01X-106252D02*
X-106827Y578705D01*
G01X-109083D02*
X-109160Y579377D01*
X-109275Y579945D01*
X-109428Y580462D01*
X-109620Y581030D01*
X-109927Y581805D01*
X-108393D01*
G01X-85812Y408235D02*
X-85582Y408390D01*
X-85314Y408493D01*
X-85007D01*
X-84662Y408338D01*
X-84394Y408080D01*
X-84202Y407770D01*
X-84049Y407253D01*
X-84011Y406788D01*
X-84087Y406323D01*
X-84202Y406013D01*
X-84432Y405703D01*
X-84701Y405496D01*
X-84969Y405393D01*
X-85237D01*
X-85506Y405496D01*
X-85736Y405651D01*
X-85927Y405858D01*
G01X-88069Y405393D02*
Y408493D01*
X-87609Y407873D01*
G01Y405393D02*
X-88529D01*
G01X-85812Y414800D02*
X-85582Y414955D01*
X-85314Y415058D01*
X-85007D01*
X-84662Y414903D01*
X-84394Y414645D01*
X-84202Y414335D01*
X-84049Y413818D01*
X-84011Y413353D01*
X-84087Y412888D01*
X-84202Y412578D01*
X-84432Y412268D01*
X-84701Y412061D01*
X-84969Y411958D01*
X-85237D01*
X-85506Y412061D01*
X-85736Y412216D01*
X-85927Y412423D01*
G01X-87341Y414541D02*
X-87571Y414851D01*
X-87839Y415006D01*
X-88146Y415058D01*
X-88529Y414955D01*
X-88797Y414696D01*
X-88874Y414386D01*
X-88836Y414076D01*
X-88682Y413818D01*
X-87916Y413301D01*
X-87571Y412940D01*
X-87341Y412423D01*
X-87264Y411958D01*
X-88874D01*
G01X-85813Y421173D02*
X-85583Y421328D01*
X-85315Y421431D01*
X-85008D01*
X-84663Y421276D01*
X-84395Y421018D01*
X-84203Y420708D01*
X-84050Y420191D01*
X-84012Y419726D01*
X-84088Y419261D01*
X-84203Y418951D01*
X-84433Y418641D01*
X-84702Y418434D01*
X-84970Y418331D01*
X-85238D01*
X-85507Y418434D01*
X-85737Y418589D01*
X-85928Y418796D01*
G01X-87227Y418951D02*
X-87457Y418589D01*
X-87763Y418383D01*
X-88108Y418331D01*
X-88415Y418383D01*
X-88722Y418641D01*
X-88913Y418951D01*
X-88952Y419261D01*
X-88875Y419623D01*
X-88607Y419881D01*
X-88338Y419984D01*
X-87993D01*
G01X-88338D02*
X-88568Y420139D01*
X-88760Y420398D01*
X-88837Y420708D01*
X-88760Y421018D01*
X-88568Y421276D01*
X-88223Y421431D01*
X-87878Y421379D01*
X-87533Y421173D01*
G01X-87961Y557989D02*
X-87731Y558144D01*
X-87463Y558247D01*
X-87156D01*
X-86811Y558092D01*
X-86543Y557834D01*
X-86351Y557524D01*
X-86198Y557007D01*
X-86160Y556542D01*
X-86236Y556077D01*
X-86351Y555767D01*
X-86581Y555457D01*
X-86850Y555250D01*
X-87118Y555147D01*
X-87386D01*
X-87655Y555250D01*
X-87885Y555405D01*
X-88076Y555612D01*
G01X-90218Y555147D02*
Y558247D01*
X-89758Y557627D01*
G01Y555147D02*
X-90678D01*
G01X-92475Y555767D02*
X-92705Y555405D01*
X-93011Y555199D01*
X-93356Y555147D01*
X-93663Y555199D01*
X-93970Y555457D01*
X-94161Y555767D01*
X-94200Y556077D01*
X-94123Y556439D01*
X-93855Y556697D01*
X-93586Y556800D01*
X-93241D01*
G01X-93586D02*
X-93816Y556955D01*
X-94008Y557214D01*
X-94085Y557524D01*
X-94008Y557834D01*
X-93816Y558092D01*
X-93471Y558247D01*
X-93126Y558195D01*
X-92781Y557989D01*
G01X-87623Y578299D02*
Y581399D01*
X-88582D01*
X-88888Y581244D01*
X-89080Y581037D01*
X-89157Y580624D01*
X-89080Y580211D01*
X-88850Y579952D01*
X-88582Y579797D01*
X-87623D01*
G01X-88582D02*
X-89157Y578299D01*
G01X-90838Y578661D02*
X-91107Y578402D01*
X-91413Y578299D01*
X-91720Y578402D01*
X-91988Y578712D01*
X-92180Y579177D01*
X-92257Y579642D01*
Y580211D01*
X-92180Y580676D01*
X-91988Y581089D01*
X-91758Y581296D01*
X-91490Y581399D01*
X-91183Y581296D01*
X-90953Y581089D01*
X-90800Y580779D01*
X-90723Y580366D01*
X-90800Y580004D01*
X-90992Y579642D01*
X-91222Y579436D01*
X-91490Y579384D01*
X-91797Y579487D01*
X-92027Y579746D01*
X-92257Y580211D01*
G01X-79486Y649583D02*
Y652683D01*
X-80942D01*
G01X-80406Y651185D02*
X-79486D01*
G01X-83621Y651236D02*
X-83774Y651391D01*
X-83889Y651650D01*
X-83966Y652011D01*
X-83889Y652321D01*
X-83736Y652528D01*
X-83467Y652683D01*
X-82432D01*
Y649583D01*
X-83697D01*
X-83966Y649790D01*
X-84119Y650100D01*
X-84196Y650461D01*
X-84119Y650823D01*
X-83889Y651133D01*
X-83621Y651236D01*
X-82432D01*
G01X-85571Y650203D02*
X-85801Y649841D01*
X-86107Y649635D01*
X-86452Y649583D01*
X-86759Y649635D01*
X-87066Y649893D01*
X-87257Y650203D01*
X-87296Y650513D01*
X-87219Y650875D01*
X-86951Y651133D01*
X-86682Y651236D01*
X-86337D01*
G01X-86682D02*
X-86912Y651391D01*
X-87104Y651650D01*
X-87181Y651960D01*
X-87104Y652270D01*
X-86912Y652528D01*
X-86567Y652683D01*
X-86222Y652631D01*
X-85877Y652425D01*
G01X-78634Y436931D02*
Y433831D01*
X-77675D01*
X-77369Y433986D01*
X-77177Y434193D01*
X-77100Y434606D01*
X-77177Y435019D01*
X-77407Y435278D01*
X-77675Y435433D01*
X-78634D01*
G01X-77675D02*
X-77100Y436931D01*
G01X-75495Y434348D02*
X-75265Y434038D01*
X-74997Y433883D01*
X-74690Y433831D01*
X-74307Y433934D01*
X-74039Y434193D01*
X-73962Y434503D01*
X-74000Y434813D01*
X-74154Y435071D01*
X-74920Y435588D01*
X-75265Y435949D01*
X-75495Y436466D01*
X-75572Y436931D01*
X-73962D01*
G01X-72395Y435639D02*
X-72127Y435278D01*
X-71897Y435071D01*
X-71590Y434968D01*
X-71322Y435071D01*
X-71130Y435278D01*
X-70977Y435588D01*
X-70939Y435949D01*
X-70977Y436259D01*
X-71130Y436569D01*
X-71360Y436828D01*
X-71629Y436931D01*
X-71935Y436828D01*
X-72204Y436518D01*
X-72357Y436053D01*
X-72395Y435536D01*
X-72319Y434864D01*
X-72204Y434503D01*
X-72012Y434141D01*
X-71744Y433883D01*
X-71475Y433831D01*
X-71207Y433934D01*
X-71015Y434193D01*
G01X-67335Y465946D02*
X-70434D01*
Y464988D01*
X-70279Y464681D01*
X-70073Y464489D01*
X-69660Y464412D01*
X-69246Y464489D01*
X-68988Y464719D01*
X-68833Y464988D01*
Y465946D01*
G01Y464988D02*
X-67335Y464412D01*
G01X-68626Y462808D02*
X-68988Y462539D01*
X-69194Y462309D01*
X-69298Y462002D01*
X-69194Y461734D01*
X-68988Y461542D01*
X-68678Y461389D01*
X-68316Y461351D01*
X-68006Y461389D01*
X-67696Y461542D01*
X-67438Y461773D01*
X-67335Y462041D01*
X-67438Y462348D01*
X-67748Y462616D01*
X-68213Y462769D01*
X-68730Y462808D01*
X-69401Y462731D01*
X-69763Y462616D01*
X-70124Y462424D01*
X-70383Y462156D01*
X-70434Y461888D01*
X-70331Y461619D01*
X-70073Y461428D01*
G01X-66962Y482901D02*
X-70062D01*
Y481942D01*
X-69907Y481636D01*
X-69700Y481444D01*
X-69287Y481368D01*
X-68874Y481444D01*
X-68615Y481674D01*
X-68460Y481942D01*
Y482901D01*
G01Y481942D02*
X-66962Y481368D01*
G01Y478574D02*
X-70062D01*
X-67840Y479993D01*
Y478076D01*
G01X-73637Y526420D02*
Y528920D01*
X-72997D01*
X-72784Y528795D01*
X-72624Y528503D01*
X-72571Y528170D01*
X-72624Y527837D01*
X-72757Y527587D01*
X-72997Y527462D01*
X-73637D01*
G01X-70904Y526420D02*
X-71064Y526462D01*
X-71224Y526628D01*
X-71331Y526920D01*
X-71384Y527253D01*
X-71331Y527587D01*
X-71224Y527878D01*
X-71064Y528045D01*
X-70904Y528087D01*
X-70744Y528045D01*
X-70584Y527878D01*
X-70477Y527587D01*
X-70451Y527253D01*
X-70477Y526920D01*
X-70584Y526628D01*
X-70744Y526462D01*
X-70904Y526420D01*
G01X-69371Y528087D02*
X-69051Y526420D01*
X-68704Y528087D01*
X-68357Y526420D01*
X-68037Y528087D01*
G01X-66904Y527545D02*
X-66051D01*
X-66131Y527837D01*
X-66264Y528003D01*
X-66451Y528087D01*
X-66637Y528045D01*
X-66797Y527920D01*
X-66904Y527628D01*
X-66957Y527378D01*
Y527128D01*
X-66904Y526878D01*
X-66771Y526628D01*
X-66611Y526462D01*
X-66424Y526420D01*
X-66237Y526503D01*
X-66051Y526753D01*
G01X-64677Y526420D02*
Y528087D01*
G01Y527753D02*
X-64544Y527920D01*
X-64411Y528045D01*
X-64224Y528087D01*
X-64091Y528045D01*
X-63931Y527920D01*
G01X-59904Y526420D02*
X-60117Y526462D01*
X-60304Y526628D01*
X-60464Y526878D01*
X-60571Y527170D01*
X-60624Y527503D01*
Y527837D01*
X-60571Y528170D01*
X-60464Y528462D01*
X-60304Y528712D01*
X-60117Y528878D01*
X-59904Y528920D01*
X-59691Y528878D01*
X-59504Y528712D01*
X-59344Y528462D01*
X-59237Y528170D01*
X-59184Y527837D01*
Y527503D01*
X-59237Y527170D01*
X-59344Y526878D01*
X-59504Y526628D01*
X-59691Y526462D01*
X-59904Y526420D01*
G01X-58317D02*
Y528920D01*
X-57091Y526420D01*
Y528920D01*
G01X-66372Y698814D02*
Y696592D01*
X-66525Y696127D01*
X-66832Y695817D01*
X-67215Y695714D01*
X-67598Y695817D01*
X-67905Y696127D01*
X-68058Y696592D01*
Y698814D01*
G01X-69663Y696076D02*
X-69932Y695817D01*
X-70238Y695714D01*
X-70545Y695817D01*
X-70813Y696127D01*
X-71005Y696592D01*
X-71082Y697057D01*
Y697626D01*
X-71005Y698091D01*
X-70813Y698504D01*
X-70583Y698711D01*
X-70315Y698814D01*
X-70008Y698711D01*
X-69778Y698504D01*
X-69625Y698194D01*
X-69548Y697781D01*
X-69625Y697419D01*
X-69817Y697057D01*
X-70047Y696851D01*
X-70315Y696799D01*
X-70622Y696902D01*
X-70852Y697161D01*
X-71082Y697626D01*
G01X-53234Y495958D02*
X-53004Y496113D01*
X-52735Y496217D01*
X-52429D01*
X-52084Y496062D01*
X-51815Y495803D01*
X-51624Y495493D01*
X-51470Y494977D01*
X-51432Y494512D01*
X-51508Y494047D01*
X-51624Y493737D01*
X-51854Y493427D01*
X-52122Y493220D01*
X-52390Y493117D01*
X-52659D01*
X-52927Y493220D01*
X-53157Y493375D01*
X-53349Y493582D01*
G01X-55490Y493117D02*
Y496217D01*
X-55030Y495597D01*
G01Y493117D02*
X-55950D01*
G01X-58590Y496217D02*
X-58284Y496113D01*
X-58054Y495855D01*
X-57900Y495545D01*
X-57785Y495132D01*
X-57747Y494667D01*
X-57785Y494202D01*
X-57900Y493788D01*
X-58054Y493478D01*
X-58284Y493220D01*
X-58590Y493117D01*
X-58897Y493220D01*
X-59127Y493478D01*
X-59280Y493788D01*
X-59395Y494202D01*
X-59434Y494667D01*
X-59395Y495132D01*
X-59280Y495545D01*
X-59127Y495855D01*
X-58897Y496113D01*
X-58590Y496217D01*
G01X-53521Y503390D02*
Y506490D01*
X-54977D01*
G01X-54441Y504992D02*
X-53521D01*
G01X-57656Y505043D02*
X-57809Y505198D01*
X-57924Y505457D01*
X-58001Y505818D01*
X-57924Y506128D01*
X-57771Y506335D01*
X-57502Y506490D01*
X-56467D01*
Y503390D01*
X-57732D01*
X-58001Y503597D01*
X-58154Y503907D01*
X-58231Y504268D01*
X-58154Y504630D01*
X-57924Y504940D01*
X-57656Y505043D01*
X-56467D01*
G01X-60449Y503390D02*
Y506490D01*
X-59989Y505870D01*
G01Y503390D02*
X-60909D01*
G01X-60097Y515797D02*
Y512697D01*
X-59138D01*
X-58832Y512852D01*
X-58640Y513059D01*
X-58563Y513472D01*
X-58640Y513885D01*
X-58870Y514144D01*
X-59138Y514299D01*
X-60097D01*
G01X-59138D02*
X-58563Y515797D01*
G01X-57073Y515177D02*
X-56843Y515539D01*
X-56537Y515745D01*
X-56192Y515797D01*
X-55885Y515745D01*
X-55578Y515487D01*
X-55387Y515177D01*
X-55348Y514867D01*
X-55425Y514505D01*
X-55693Y514247D01*
X-55962Y514144D01*
X-56307D01*
G01X-55962D02*
X-55732Y513989D01*
X-55540Y513730D01*
X-55463Y513420D01*
X-55540Y513110D01*
X-55732Y512852D01*
X-56077Y512697D01*
X-56422Y512749D01*
X-56767Y512955D01*
G01X-53973Y515332D02*
X-53743Y515590D01*
X-53475Y515745D01*
X-53130Y515797D01*
X-52785Y515694D01*
X-52517Y515487D01*
X-52325Y515125D01*
X-52287Y514712D01*
X-52363Y514299D01*
X-52555Y514040D01*
X-52823Y513834D01*
X-53092Y513782D01*
X-53360Y513834D01*
X-53705Y514040D01*
X-53590Y512697D01*
X-52555D01*
G01X-53574Y519706D02*
Y522806D01*
X-54340D01*
X-54647Y522651D01*
X-54877Y522444D01*
X-55069Y522134D01*
X-55222Y521773D01*
X-55260Y521256D01*
X-55222Y520739D01*
X-55069Y520378D01*
X-54877Y520068D01*
X-54647Y519861D01*
X-54340Y519706D01*
X-53574D01*
G01X-57977D02*
Y522806D01*
X-56559Y520584D01*
X-58475D01*
G01X-33802Y383007D02*
X-33572Y383162D01*
X-33304Y383265D01*
X-32997D01*
X-32652Y383110D01*
X-32384Y382852D01*
X-32192Y382542D01*
X-32039Y382025D01*
X-32001Y381560D01*
X-32077Y381095D01*
X-32192Y380785D01*
X-32422Y380475D01*
X-32691Y380268D01*
X-32959Y380165D01*
X-33227D01*
X-33496Y380268D01*
X-33726Y380423D01*
X-33917Y380630D01*
G01X-35216Y380785D02*
X-35446Y380423D01*
X-35752Y380217D01*
X-36097Y380165D01*
X-36404Y380217D01*
X-36711Y380475D01*
X-36902Y380785D01*
X-36941Y381095D01*
X-36864Y381457D01*
X-36596Y381715D01*
X-36327Y381818D01*
X-35982D01*
G01X-36327D02*
X-36557Y381973D01*
X-36749Y382232D01*
X-36826Y382542D01*
X-36749Y382852D01*
X-36557Y383110D01*
X-36212Y383265D01*
X-35867Y383213D01*
X-35522Y383007D01*
G01X-39159Y383265D02*
X-38852Y383162D01*
X-38622Y382903D01*
X-38469Y382593D01*
X-38354Y382180D01*
X-38316Y381715D01*
X-38354Y381250D01*
X-38469Y380837D01*
X-38622Y380527D01*
X-38852Y380268D01*
X-39159Y380165D01*
X-39466Y380268D01*
X-39696Y380527D01*
X-39849Y380837D01*
X-39964Y381250D01*
X-40002Y381715D01*
X-39964Y382180D01*
X-39849Y382593D01*
X-39696Y382903D01*
X-39466Y383162D01*
X-39159Y383265D01*
G01X-45894Y648814D02*
X-46124Y648659D01*
X-46392Y648556D01*
X-46699D01*
X-47044Y648711D01*
X-47312Y648969D01*
X-47504Y649279D01*
X-47657Y649796D01*
X-47695Y650261D01*
X-47619Y650726D01*
X-47504Y651036D01*
X-47274Y651346D01*
X-47005Y651553D01*
X-46737Y651656D01*
X-46469D01*
X-46200Y651553D01*
X-45970Y651398D01*
X-45779Y651191D01*
G01X-44365Y649073D02*
X-44135Y648763D01*
X-43867Y648608D01*
X-43560Y648556D01*
X-43177Y648659D01*
X-42909Y648918D01*
X-42832Y649228D01*
X-42870Y649538D01*
X-43024Y649796D01*
X-43790Y650313D01*
X-44135Y650674D01*
X-44365Y651191D01*
X-44442Y651656D01*
X-42832D01*
G01X-41380Y651036D02*
X-41150Y651398D01*
X-40844Y651604D01*
X-40499Y651656D01*
X-40192Y651604D01*
X-39885Y651346D01*
X-39694Y651036D01*
X-39655Y650726D01*
X-39732Y650364D01*
X-40000Y650106D01*
X-40269Y650003D01*
X-40614D01*
G01X-40269D02*
X-40039Y649848D01*
X-39847Y649589D01*
X-39770Y649279D01*
X-39847Y648969D01*
X-40039Y648711D01*
X-40384Y648556D01*
X-40729Y648608D01*
X-41074Y648814D01*
G01X-23343Y368770D02*
X-21948D01*
X-20243Y368003D01*
G01Y369537D02*
X-21948Y368770D01*
G01X-23343Y371870D02*
X-20243D01*
X-20863Y371410D01*
G01X-23343D02*
Y372330D01*
G01X-14683Y456843D02*
X-14528Y456613D01*
X-14425Y456345D01*
Y456038D01*
X-14580Y455693D01*
X-14838Y455425D01*
X-15148Y455233D01*
X-15665Y455080D01*
X-16130Y455042D01*
X-16595Y455118D01*
X-16905Y455233D01*
X-17215Y455463D01*
X-17422Y455732D01*
X-17525Y456000D01*
Y456268D01*
X-17422Y456537D01*
X-17267Y456767D01*
X-17060Y456958D01*
G01X-17525Y459560D02*
X-14425D01*
X-16647Y458142D01*
Y460058D01*
G01X-17956Y492990D02*
Y490769D01*
X-18110Y490304D01*
X-18416Y489994D01*
X-18800Y489890D01*
X-19183Y489994D01*
X-19490Y490304D01*
X-19643Y490769D01*
Y492990D01*
G01X-21056Y490510D02*
X-21286Y490149D01*
X-21593Y489942D01*
X-21938Y489890D01*
X-22245Y489942D01*
X-22551Y490200D01*
X-22743Y490510D01*
X-22781Y490820D01*
X-22705Y491182D01*
X-22436Y491440D01*
X-22168Y491544D01*
X-21823D01*
G01X-22168D02*
X-22398Y491699D01*
X-22590Y491957D01*
X-22666Y492267D01*
X-22590Y492577D01*
X-22398Y492835D01*
X-22053Y492990D01*
X-21708Y492939D01*
X-21363Y492732D01*
G01X-15635Y507707D02*
Y510807D01*
X-16594D01*
X-16900Y510652D01*
X-17092Y510445D01*
X-17169Y510032D01*
X-17092Y509619D01*
X-16862Y509360D01*
X-16594Y509205D01*
X-15635D01*
G01X-16594D02*
X-17169Y507707D01*
G01X-18774Y510290D02*
X-19004Y510600D01*
X-19272Y510755D01*
X-19579Y510807D01*
X-19962Y510704D01*
X-20230Y510445D01*
X-20307Y510135D01*
X-20269Y509825D01*
X-20115Y509567D01*
X-19349Y509050D01*
X-19004Y508689D01*
X-18774Y508172D01*
X-18697Y507707D01*
X-20307D01*
G01X-23062D02*
Y510807D01*
X-21644Y508585D01*
X-23560D01*
G01X-11195Y374543D02*
X-11350Y374773D01*
X-11453Y375041D01*
Y375348D01*
X-11298Y375693D01*
X-11040Y375961D01*
X-10730Y376153D01*
X-10213Y376306D01*
X-9748Y376344D01*
X-9283Y376268D01*
X-8973Y376153D01*
X-8663Y375923D01*
X-8456Y375654D01*
X-8353Y375386D01*
Y375118D01*
X-8456Y374849D01*
X-8611Y374619D01*
X-8818Y374428D01*
G01X-8973Y373129D02*
X-8611Y372899D01*
X-8405Y372593D01*
X-8353Y372248D01*
X-8405Y371941D01*
X-8663Y371634D01*
X-8973Y371443D01*
X-9283Y371404D01*
X-9645Y371481D01*
X-9903Y371749D01*
X-10006Y372018D01*
Y372363D01*
G01Y372018D02*
X-10161Y371788D01*
X-10420Y371596D01*
X-10730Y371519D01*
X-11040Y371596D01*
X-11298Y371788D01*
X-11453Y372133D01*
X-11401Y372478D01*
X-11195Y372823D01*
G01X-8353Y369186D02*
X-11453D01*
X-10833Y369646D01*
G01X-8353D02*
Y368726D01*
G01X958Y377207D02*
X-2142D01*
Y376248D01*
X-1987Y375942D01*
X-1780Y375750D01*
X-1367Y375673D01*
X-954Y375750D01*
X-695Y375980D01*
X-540Y376248D01*
Y377207D01*
G01Y376248D02*
X958Y375673D01*
G01X-1625Y374068D02*
X-1935Y373838D01*
X-2090Y373570D01*
X-2142Y373263D01*
X-2039Y372880D01*
X-1780Y372612D01*
X-1470Y372535D01*
X-1160Y372573D01*
X-902Y372727D01*
X-385Y373493D01*
X-24Y373838D01*
X493Y374068D01*
X958Y374145D01*
Y372535D01*
G01X493Y371083D02*
X751Y370853D01*
X906Y370585D01*
X958Y370240D01*
X855Y369895D01*
X648Y369627D01*
X286Y369435D01*
X-127Y369397D01*
X-540Y369473D01*
X-799Y369665D01*
X-1005Y369933D01*
X-1057Y370202D01*
X-1005Y370470D01*
X-799Y370815D01*
X-2142Y370700D01*
Y369665D01*
G01X6642Y444618D02*
Y442396D01*
X6488Y441931D01*
X6182Y441622D01*
X5798Y441518D01*
X5415Y441622D01*
X5108Y441931D01*
X4955Y442396D01*
Y444618D01*
G01X2698Y441518D02*
Y444618D01*
X3158Y443998D01*
G01Y441518D02*
X2238D01*
G01X442Y441983D02*
X212Y441725D01*
X-57Y441570D01*
X-402Y441518D01*
X-747Y441622D01*
X-1015Y441828D01*
X-1207Y442190D01*
X-1245Y442603D01*
X-1168Y443016D01*
X-977Y443275D01*
X-708Y443481D01*
X-440Y443533D01*
X-172Y443481D01*
X173Y443275D01*
X58Y444618D01*
X-977D01*
G01X4063Y439491D02*
G03I-1000J0D01*
G01X-201Y664130D02*
X29Y664285D01*
X297Y664388D01*
X604D01*
X949Y664233D01*
X1217Y663975D01*
X1409Y663665D01*
X1562Y663148D01*
X1600Y662683D01*
X1524Y662218D01*
X1409Y661908D01*
X1179Y661598D01*
X910Y661391D01*
X642Y661288D01*
X374D01*
X105Y661391D01*
X-125Y661546D01*
X-316Y661753D01*
G01X-2458Y661288D02*
Y664388D01*
X-1998Y663768D01*
G01Y661288D02*
X-2918D01*
G01X-5558D02*
X-5826Y661340D01*
X-6133Y661495D01*
X-6325Y661753D01*
X-6401Y662115D01*
X-6325Y662476D01*
X-6095Y662786D01*
X-5750Y662941D01*
X-5366D01*
X-5136Y663045D01*
X-4945Y663303D01*
X-4868Y663665D01*
X-4983Y664026D01*
X-5251Y664285D01*
X-5558Y664388D01*
X-5865Y664285D01*
X-6133Y664026D01*
X-6248Y663665D01*
X-6171Y663303D01*
X-5980Y663045D01*
X-5750Y662941D01*
X-5366D01*
X-5021Y662786D01*
X-4791Y662476D01*
X-4715Y662115D01*
X-4791Y661753D01*
X-4983Y661495D01*
X-5290Y661340D01*
X-5558Y661288D01*
G01X1180Y670501D02*
Y673601D01*
X221D01*
X-85Y673446D01*
X-277Y673239D01*
X-354Y672826D01*
X-277Y672413D01*
X-47Y672154D01*
X221Y671999D01*
X1180D01*
G01X221D02*
X-354Y670501D01*
G01X-2687D02*
Y673601D01*
X-2227Y672981D01*
G01Y670501D02*
X-3147D01*
G01X-6247D02*
Y673601D01*
X-4829Y671379D01*
X-6745D01*
G01X9199Y375155D02*
X9354Y374925D01*
X9457Y374657D01*
Y374350D01*
X9302Y374005D01*
X9044Y373737D01*
X8734Y373545D01*
X8217Y373392D01*
X7752Y373354D01*
X7287Y373430D01*
X6977Y373545D01*
X6667Y373775D01*
X6460Y374044D01*
X6357Y374312D01*
Y374580D01*
X6460Y374849D01*
X6615Y375079D01*
X6822Y375270D01*
G01X8940Y376684D02*
X9250Y376914D01*
X9405Y377182D01*
X9457Y377489D01*
X9354Y377872D01*
X9095Y378140D01*
X8785Y378217D01*
X8475Y378179D01*
X8217Y378025D01*
X7700Y377259D01*
X7339Y376914D01*
X6822Y376684D01*
X6357Y376607D01*
Y378217D01*
G01Y380512D02*
X6409Y380780D01*
X6564Y381087D01*
X6822Y381279D01*
X7184Y381355D01*
X7545Y381279D01*
X7855Y381049D01*
X8010Y380704D01*
Y380320D01*
X8114Y380090D01*
X8372Y379899D01*
X8734Y379822D01*
X9095Y379937D01*
X9354Y380205D01*
X9457Y380512D01*
X9354Y380819D01*
X9095Y381087D01*
X8734Y381202D01*
X8372Y381125D01*
X8114Y380934D01*
X8010Y380704D01*
Y380320D01*
X7855Y379975D01*
X7545Y379745D01*
X7184Y379669D01*
X6822Y379745D01*
X6564Y379937D01*
X6409Y380244D01*
X6357Y380512D01*
G01X14568Y372898D02*
Y416993D01*
X39371D01*
Y372898D01*
X14568D01*
G01X11295Y390907D02*
X10985Y391098D01*
X10778Y391328D01*
X10675Y391597D01*
X10778Y391904D01*
X10985Y392134D01*
X11295Y392364D01*
X11708Y392440D01*
X13775D01*
G01X10675Y394774D02*
X13775D01*
X13155Y394314D01*
G01X10675D02*
Y395233D01*
G01Y397874D02*
X13775D01*
X13155Y397414D01*
G01X10675D02*
Y398333D01*
G01X18795Y460100D02*
Y463200D01*
X17836D01*
X17530Y463045D01*
X17338Y462838D01*
X17261Y462425D01*
X17338Y462012D01*
X17568Y461753D01*
X17836Y461598D01*
X18795D01*
G01X17836D02*
X17261Y460100D01*
G01X15771Y460565D02*
X15541Y460307D01*
X15273Y460152D01*
X14928Y460100D01*
X14583Y460203D01*
X14315Y460410D01*
X14123Y460772D01*
X14085Y461185D01*
X14161Y461598D01*
X14353Y461857D01*
X14621Y462063D01*
X14890Y462115D01*
X15158Y462063D01*
X15503Y461857D01*
X15388Y463200D01*
X14353D01*
G01X18795Y471677D02*
Y474777D01*
X17836D01*
X17530Y474622D01*
X17338Y474415D01*
X17261Y474002D01*
X17338Y473589D01*
X17568Y473330D01*
X17836Y473175D01*
X18795D01*
G01X17836D02*
X17261Y471677D01*
G01X15771Y472297D02*
X15541Y471935D01*
X15235Y471729D01*
X14890Y471677D01*
X14583Y471729D01*
X14276Y471987D01*
X14085Y472297D01*
X14046Y472607D01*
X14123Y472969D01*
X14391Y473227D01*
X14660Y473330D01*
X15005D01*
G01X14660D02*
X14430Y473485D01*
X14238Y473744D01*
X14161Y474054D01*
X14238Y474364D01*
X14430Y474622D01*
X14775Y474777D01*
X15120Y474725D01*
X15465Y474519D01*
G01X27877Y430534D02*
X27647Y430379D01*
X27379Y430276D01*
X27072D01*
X26727Y430431D01*
X26459Y430689D01*
X26267Y430999D01*
X26114Y431516D01*
X26076Y431981D01*
X26152Y432446D01*
X26267Y432756D01*
X26497Y433066D01*
X26766Y433273D01*
X27034Y433376D01*
X27302D01*
X27571Y433273D01*
X27801Y433118D01*
X27992Y432911D01*
G01X29406Y430793D02*
X29636Y430483D01*
X29904Y430328D01*
X30211Y430276D01*
X30594Y430379D01*
X30862Y430638D01*
X30939Y430948D01*
X30901Y431258D01*
X30747Y431516D01*
X29981Y432033D01*
X29636Y432394D01*
X29406Y432911D01*
X29329Y433376D01*
X30939D01*
G01X32582Y433014D02*
X32851Y433273D01*
X33157Y433376D01*
X33464Y433273D01*
X33732Y432963D01*
X33924Y432498D01*
X34001Y432033D01*
Y431464D01*
X33924Y430999D01*
X33732Y430586D01*
X33502Y430379D01*
X33234Y430276D01*
X32927Y430379D01*
X32697Y430586D01*
X32544Y430896D01*
X32467Y431309D01*
X32544Y431671D01*
X32736Y432033D01*
X32966Y432239D01*
X33234Y432291D01*
X33541Y432188D01*
X33771Y431929D01*
X34001Y431464D01*
G01X25252Y421218D02*
Y418118D01*
X26211D01*
X26517Y418273D01*
X26709Y418480D01*
X26786Y418893D01*
X26709Y419306D01*
X26479Y419565D01*
X26211Y419720D01*
X25252D01*
G01X26211D02*
X26786Y421218D01*
G01X28276Y420598D02*
X28506Y420960D01*
X28812Y421166D01*
X29157Y421218D01*
X29464Y421166D01*
X29771Y420908D01*
X29962Y420598D01*
X30001Y420288D01*
X29924Y419926D01*
X29656Y419668D01*
X29387Y419565D01*
X29042D01*
G01X29387D02*
X29617Y419410D01*
X29809Y419151D01*
X29886Y418841D01*
X29809Y418531D01*
X29617Y418273D01*
X29272Y418118D01*
X28927Y418170D01*
X28582Y418376D01*
G01X31491Y419926D02*
X31759Y419565D01*
X31989Y419358D01*
X32296Y419255D01*
X32564Y419358D01*
X32756Y419565D01*
X32909Y419875D01*
X32947Y420236D01*
X32909Y420546D01*
X32756Y420856D01*
X32526Y421115D01*
X32257Y421218D01*
X31951Y421115D01*
X31682Y420805D01*
X31529Y420340D01*
X31491Y419823D01*
X31567Y419151D01*
X31682Y418790D01*
X31874Y418428D01*
X32142Y418170D01*
X32411Y418118D01*
X32679Y418221D01*
X32871Y418480D01*
G01X25422Y427310D02*
Y424210D01*
X26381D01*
X26687Y424365D01*
X26879Y424572D01*
X26956Y424985D01*
X26879Y425398D01*
X26649Y425657D01*
X26381Y425812D01*
X25422D01*
G01X26381D02*
X26956Y427310D01*
G01X28446Y426690D02*
X28676Y427052D01*
X28982Y427258D01*
X29327Y427310D01*
X29634Y427258D01*
X29941Y427000D01*
X30132Y426690D01*
X30171Y426380D01*
X30094Y426018D01*
X29826Y425760D01*
X29557Y425657D01*
X29212D01*
G01X29557D02*
X29787Y425502D01*
X29979Y425243D01*
X30056Y424933D01*
X29979Y424623D01*
X29787Y424365D01*
X29442Y424210D01*
X29097Y424262D01*
X28752Y424468D01*
G01X32312Y427310D02*
X32389Y426638D01*
X32504Y426070D01*
X32657Y425553D01*
X32849Y424985D01*
X33156Y424210D01*
X31622D01*
G01X34813Y484910D02*
X34583Y484755D01*
X34315Y484652D01*
X34008D01*
X33663Y484807D01*
X33395Y485065D01*
X33203Y485375D01*
X33050Y485892D01*
X33012Y486357D01*
X33088Y486822D01*
X33203Y487132D01*
X33433Y487442D01*
X33702Y487649D01*
X33970Y487752D01*
X34238D01*
X34507Y487649D01*
X34737Y487494D01*
X34928Y487287D01*
G01X37070Y487752D02*
X37338Y487700D01*
X37645Y487545D01*
X37837Y487287D01*
X37913Y486925D01*
X37837Y486564D01*
X37607Y486254D01*
X37262Y486099D01*
X36878D01*
X36648Y485995D01*
X36457Y485737D01*
X36380Y485375D01*
X36495Y485014D01*
X36763Y484755D01*
X37070Y484652D01*
X37377Y484755D01*
X37645Y485014D01*
X37760Y485375D01*
X37683Y485737D01*
X37492Y485995D01*
X37262Y486099D01*
X36878D01*
X36533Y486254D01*
X36303Y486564D01*
X36227Y486925D01*
X36303Y487287D01*
X36495Y487545D01*
X36802Y487700D01*
X37070Y487752D01*
G01X34690Y494145D02*
X34460Y493990D01*
X34192Y493887D01*
X33885D01*
X33540Y494042D01*
X33272Y494300D01*
X33080Y494610D01*
X32927Y495127D01*
X32889Y495592D01*
X32965Y496057D01*
X33080Y496367D01*
X33310Y496677D01*
X33579Y496884D01*
X33847Y496987D01*
X34115D01*
X34384Y496884D01*
X34614Y496729D01*
X34805Y496522D01*
G01X36295Y496625D02*
X36564Y496884D01*
X36870Y496987D01*
X37177Y496884D01*
X37445Y496574D01*
X37637Y496109D01*
X37714Y495644D01*
Y495075D01*
X37637Y494610D01*
X37445Y494197D01*
X37215Y493990D01*
X36947Y493887D01*
X36640Y493990D01*
X36410Y494197D01*
X36257Y494507D01*
X36180Y494920D01*
X36257Y495282D01*
X36449Y495644D01*
X36679Y495850D01*
X36947Y495902D01*
X37254Y495799D01*
X37484Y495540D01*
X37714Y495075D01*
G01X37466Y660743D02*
X37773Y661001D01*
X38118Y661156D01*
X38424D01*
X38731Y661001D01*
X38961Y660743D01*
X39076Y660381D01*
X39000Y660020D01*
X38808Y659710D01*
X38463Y659503D01*
X38003Y659400D01*
X37735Y659193D01*
X37620Y658831D01*
X37696Y658470D01*
X37888Y658211D01*
X38156Y658056D01*
X38424D01*
X38693Y658160D01*
X38923Y658418D01*
G01X41371Y661156D02*
Y658056D01*
X40911Y658676D01*
G01Y661156D02*
X41831D01*
G01X42277Y370056D02*
X44777Y370723D01*
X42277Y371390D01*
G01X42485Y373510D02*
X42360Y373350D01*
X42277Y373163D01*
Y372950D01*
X42402Y372710D01*
X42610Y372523D01*
X42860Y372390D01*
X43277Y372283D01*
X43652Y372256D01*
X44027Y372310D01*
X44277Y372390D01*
X44527Y372550D01*
X44694Y372736D01*
X44777Y372923D01*
Y373110D01*
X44694Y373296D01*
X44569Y373456D01*
X44402Y373590D01*
G01X42485Y375710D02*
X42360Y375550D01*
X42277Y375363D01*
Y375150D01*
X42402Y374910D01*
X42610Y374723D01*
X42860Y374590D01*
X43277Y374483D01*
X43652Y374456D01*
X44027Y374510D01*
X44277Y374590D01*
X44527Y374750D01*
X44694Y374936D01*
X44777Y375123D01*
Y375310D01*
X44694Y375496D01*
X44569Y375656D01*
X44402Y375790D01*
G01X43944Y379176D02*
Y379870D01*
G01X44777Y383230D02*
X42277D01*
X44360Y383923D01*
X42277Y384616D01*
X44777D01*
G01X42277Y385803D02*
Y386443D01*
G01Y386123D02*
X44777D01*
G01Y385803D02*
Y386443D01*
G01X44444Y387763D02*
X44652Y387976D01*
X44777Y388216D01*
Y388430D01*
X44652Y388643D01*
X44444Y388803D01*
X44152Y388883D01*
X43860Y388830D01*
X43610Y388696D01*
X43444Y388456D01*
X43360Y388136D01*
X43194Y387950D01*
X42902Y387870D01*
X42610Y387923D01*
X42402Y388056D01*
X42277Y388243D01*
Y388430D01*
X42360Y388616D01*
X42569Y388776D01*
G01X44777Y390523D02*
X44735Y390310D01*
X44569Y390123D01*
X44319Y389963D01*
X44027Y389856D01*
X43694Y389803D01*
X43360D01*
X43027Y389856D01*
X42735Y389963D01*
X42485Y390123D01*
X42319Y390310D01*
X42277Y390523D01*
X42319Y390736D01*
X42485Y390923D01*
X42735Y391083D01*
X43027Y391190D01*
X43360Y391243D01*
X43694D01*
X44027Y391190D01*
X44319Y391083D01*
X44569Y390923D01*
X44735Y390736D01*
X44777Y390523D01*
G01X43944Y394576D02*
Y395270D01*
G01X44444Y398763D02*
X44652Y398976D01*
X44777Y399216D01*
Y399430D01*
X44652Y399643D01*
X44444Y399803D01*
X44152Y399883D01*
X43860Y399830D01*
X43610Y399696D01*
X43444Y399456D01*
X43360Y399136D01*
X43194Y398950D01*
X42902Y398870D01*
X42610Y398923D01*
X42402Y399056D01*
X42277Y399243D01*
Y399430D01*
X42360Y399616D01*
X42569Y399776D01*
G01X42485Y402110D02*
X42360Y401950D01*
X42277Y401763D01*
Y401550D01*
X42402Y401310D01*
X42610Y401123D01*
X42860Y400990D01*
X43277Y400883D01*
X43652Y400856D01*
X44027Y400910D01*
X44277Y400990D01*
X44527Y401150D01*
X44694Y401336D01*
X44777Y401523D01*
Y401710D01*
X44694Y401896D01*
X44569Y402056D01*
X44402Y402190D01*
G01X44777Y403136D02*
X42277D01*
G01Y404150D02*
X43819Y403136D01*
G01X44777Y404310D02*
X43110Y403590D01*
G01X43944Y407776D02*
Y408470D01*
G01X44777Y411830D02*
X42277D01*
X44360Y412523D01*
X42277Y413216D01*
X44777D01*
G01Y414723D02*
X44735Y414510D01*
X44569Y414323D01*
X44319Y414163D01*
X44027Y414056D01*
X43694Y414003D01*
X43360D01*
X43027Y414056D01*
X42735Y414163D01*
X42485Y414323D01*
X42319Y414510D01*
X42277Y414723D01*
X42319Y414936D01*
X42485Y415123D01*
X42735Y415283D01*
X43027Y415390D01*
X43360Y415443D01*
X43694D01*
X44027Y415390D01*
X44319Y415283D01*
X44569Y415123D01*
X44735Y414936D01*
X44777Y414723D01*
G01X44444Y416363D02*
X44652Y416576D01*
X44777Y416816D01*
Y417030D01*
X44652Y417243D01*
X44444Y417403D01*
X44152Y417483D01*
X43860Y417430D01*
X43610Y417296D01*
X43444Y417056D01*
X43360Y416736D01*
X43194Y416550D01*
X42902Y416470D01*
X42610Y416523D01*
X42402Y416656D01*
X42277Y416843D01*
Y417030D01*
X42360Y417216D01*
X42569Y417376D01*
G01X42277Y418803D02*
Y419443D01*
G01Y419123D02*
X44777D01*
G01Y418803D02*
Y419443D01*
G01X58668Y617698D02*
X58898Y617853D01*
X59166Y617956D01*
X59473D01*
X59818Y617801D01*
X60086Y617543D01*
X60278Y617233D01*
X60431Y616716D01*
X60469Y616251D01*
X60393Y615786D01*
X60278Y615476D01*
X60048Y615166D01*
X59779Y614959D01*
X59511Y614856D01*
X59243D01*
X58974Y614959D01*
X58744Y615114D01*
X58553Y615321D01*
G01X56411Y614856D02*
Y617956D01*
X56871Y617336D01*
G01Y614856D02*
X55951D01*
G01X54154Y615321D02*
X53924Y615063D01*
X53656Y614908D01*
X53311Y614856D01*
X52966Y614959D01*
X52698Y615166D01*
X52506Y615528D01*
X52468Y615941D01*
X52544Y616354D01*
X52736Y616613D01*
X53004Y616819D01*
X53273Y616871D01*
X53541Y616819D01*
X53886Y616613D01*
X53771Y617956D01*
X52736D01*
G01X60684Y627650D02*
Y630750D01*
X59725D01*
X59419Y630595D01*
X59227Y630388D01*
X59150Y629975D01*
X59227Y629562D01*
X59457Y629303D01*
X59725Y629148D01*
X60684D01*
G01X59725D02*
X59150Y627650D01*
G01X56817D02*
Y630750D01*
X57277Y630130D01*
G01Y627650D02*
X56357D01*
G01X53717D02*
Y630750D01*
X54177Y630130D01*
G01Y627650D02*
X53257D01*
G01X68458Y479504D02*
X71558Y479559D01*
X71544Y480325D01*
X71384Y480629D01*
X71173Y480856D01*
X70860Y481042D01*
X70496Y481189D01*
X69978Y481218D01*
X69463Y481171D01*
X69104Y481011D01*
X68797Y480814D01*
X68594Y480580D01*
X68445Y480271D01*
X68458Y479504D01*
G01X68389Y483447D02*
X71489Y483501D01*
X70877Y483031D01*
G01X68398Y482987D02*
X68381Y483907D01*
G01X103755Y617698D02*
X103985Y617853D01*
X104253Y617956D01*
X104560D01*
X104905Y617801D01*
X105173Y617543D01*
X105365Y617233D01*
X105518Y616716D01*
X105556Y616251D01*
X105480Y615786D01*
X105365Y615476D01*
X105135Y615166D01*
X104866Y614959D01*
X104598Y614856D01*
X104330D01*
X104061Y614959D01*
X103831Y615114D01*
X103640Y615321D01*
G01X101498Y614856D02*
Y617956D01*
X101958Y617336D01*
G01Y614856D02*
X101038D01*
G01X97938D02*
Y617956D01*
X99356Y615734D01*
X97440D01*
G01X105161Y627447D02*
Y630547D01*
X104202D01*
X103896Y630392D01*
X103704Y630185D01*
X103627Y629772D01*
X103704Y629359D01*
X103934Y629100D01*
X104202Y628945D01*
X105161D01*
G01X104202D02*
X103627Y627447D01*
G01X101294D02*
Y630547D01*
X101754Y629927D01*
G01Y627447D02*
X100834D01*
G01X98194Y630547D02*
X98501Y630444D01*
X98731Y630185D01*
X98884Y629875D01*
X98999Y629462D01*
X99037Y628997D01*
X98999Y628532D01*
X98884Y628119D01*
X98731Y627809D01*
X98501Y627550D01*
X98194Y627447D01*
X97887Y627550D01*
X97657Y627809D01*
X97504Y628119D01*
X97389Y628532D01*
X97351Y628997D01*
X97389Y629462D01*
X97504Y629875D01*
X97657Y630185D01*
X97887Y630444D01*
X98194Y630547D01*
G01X117716Y480821D02*
Y478599D01*
X117563Y478134D01*
X117256Y477824D01*
X116873Y477721D01*
X116490Y477824D01*
X116183Y478134D01*
X116030Y478599D01*
Y480821D01*
G01X114501Y480304D02*
X114271Y480614D01*
X114003Y480769D01*
X113696Y480821D01*
X113313Y480718D01*
X113044Y480459D01*
X112968Y480149D01*
X113006Y479839D01*
X113160Y479581D01*
X113926Y479064D01*
X114271Y478703D01*
X114501Y478186D01*
X114578Y477721D01*
X112968D01*
G01X123986Y493873D02*
Y496973D01*
X123027D01*
X122721Y496818D01*
X122529Y496611D01*
X122452Y496198D01*
X122529Y495785D01*
X122759Y495526D01*
X123027Y495371D01*
X123986D01*
G01X123027D02*
X122452Y493873D01*
G01X120847Y496456D02*
X120617Y496766D01*
X120349Y496921D01*
X120042Y496973D01*
X119659Y496870D01*
X119391Y496611D01*
X119314Y496301D01*
X119352Y495991D01*
X119506Y495733D01*
X120272Y495216D01*
X120617Y494855D01*
X120847Y494338D01*
X120924Y493873D01*
X119314D01*
G01X125812Y534665D02*
X123312D01*
Y535331D01*
X123437Y535545D01*
X123604Y535678D01*
X123937Y535731D01*
X124270Y535678D01*
X124479Y535518D01*
X124604Y535331D01*
Y534665D01*
G01Y535331D02*
X125812Y535731D01*
G01Y537931D02*
Y536865D01*
X123312D01*
Y537931D01*
G01X124520Y537505D02*
Y536865D01*
G01X123312Y539091D02*
Y540105D01*
X125812Y539091D01*
Y540105D01*
G01X115015Y535358D02*
Y535891D01*
X115765D01*
X116015Y535731D01*
X116182Y535545D01*
X116265Y535278D01*
X116182Y535011D01*
X116015Y534825D01*
X115765Y534665D01*
X115473Y534558D01*
X115140Y534505D01*
X114848D01*
X114598Y534558D01*
X114307Y534665D01*
X114057Y534825D01*
X113890Y534985D01*
X113765Y535198D01*
Y535385D01*
X113848Y535598D01*
X114015Y535758D01*
G01X116265Y536785D02*
X113765D01*
X116265Y538011D01*
X113765D01*
G01X116265Y539011D02*
X113765D01*
Y539545D01*
X113890Y539758D01*
X114057Y539918D01*
X114307Y540051D01*
X114598Y540158D01*
X115015Y540185D01*
X115432Y540158D01*
X115723Y540051D01*
X115973Y539918D01*
X116140Y539758D01*
X116265Y539545D01*
Y539011D01*
G01X142793Y534079D02*
X144585D01*
X144960Y534186D01*
X145210Y534399D01*
X145293Y534666D01*
X145210Y534933D01*
X144960Y535146D01*
X144585Y535253D01*
X142793D01*
G01X144960Y536306D02*
X145168Y536519D01*
X145293Y536759D01*
Y536973D01*
X145168Y537186D01*
X144960Y537346D01*
X144668Y537426D01*
X144376Y537373D01*
X144126Y537239D01*
X143960Y536999D01*
X143876Y536679D01*
X143710Y536493D01*
X143418Y536413D01*
X143126Y536466D01*
X142918Y536599D01*
X142793Y536786D01*
Y536973D01*
X142876Y537159D01*
X143085Y537319D01*
G01X143960Y539279D02*
X143835Y539386D01*
X143626Y539466D01*
X143335Y539519D01*
X143085Y539466D01*
X142918Y539359D01*
X142793Y539173D01*
Y538453D01*
X145293D01*
Y539333D01*
X145126Y539519D01*
X144876Y539626D01*
X144585Y539679D01*
X144293Y539626D01*
X144043Y539466D01*
X143960Y539279D01*
Y538453D01*
G01X145293Y540679D02*
X142793D01*
Y541213D01*
X142918Y541426D01*
X143085Y541586D01*
X143335Y541719D01*
X143626Y541826D01*
X144043Y541853D01*
X144460Y541826D01*
X144751Y541719D01*
X145001Y541586D01*
X145168Y541426D01*
X145293Y541213D01*
Y540679D01*
G01X146126Y542666D02*
Y544266D01*
G01X145293Y545133D02*
X142793D01*
Y545773D01*
X142918Y545986D01*
X143210Y546146D01*
X143543Y546199D01*
X143876Y546146D01*
X144126Y546013D01*
X144251Y545773D01*
Y545133D01*
G01X132738Y534369D02*
X134530D01*
X134905Y534476D01*
X135155Y534689D01*
X135238Y534956D01*
X135155Y535223D01*
X134905Y535436D01*
X134530Y535543D01*
X132738D01*
G01X134905Y536596D02*
X135113Y536809D01*
X135238Y537049D01*
Y537263D01*
X135113Y537476D01*
X134905Y537636D01*
X134613Y537716D01*
X134321Y537663D01*
X134071Y537529D01*
X133905Y537289D01*
X133821Y536969D01*
X133655Y536783D01*
X133363Y536703D01*
X133071Y536756D01*
X132863Y536889D01*
X132738Y537076D01*
Y537263D01*
X132821Y537449D01*
X133030Y537609D01*
G01X133905Y539569D02*
X133780Y539676D01*
X133571Y539756D01*
X133280Y539809D01*
X133030Y539756D01*
X132863Y539649D01*
X132738Y539463D01*
Y538743D01*
X135238D01*
Y539623D01*
X135071Y539809D01*
X134821Y539916D01*
X134530Y539969D01*
X134238Y539916D01*
X133988Y539756D01*
X133905Y539569D01*
Y538743D01*
G01X135238Y540969D02*
X132738D01*
Y541503D01*
X132863Y541716D01*
X133030Y541876D01*
X133280Y542009D01*
X133571Y542116D01*
X133988Y542143D01*
X134405Y542116D01*
X134696Y542009D01*
X134946Y541876D01*
X135113Y541716D01*
X135238Y541503D01*
Y540969D01*
G01X136071Y542956D02*
Y544556D01*
G01X135238Y545343D02*
X132738D01*
X135238Y546569D01*
X132738D01*
G01X161175Y481627D02*
X161405Y481782D01*
X161673Y481885D01*
X161980D01*
X162325Y481730D01*
X162593Y481472D01*
X162785Y481162D01*
X162938Y480645D01*
X162976Y480180D01*
X162900Y479715D01*
X162785Y479405D01*
X162555Y479095D01*
X162286Y478888D01*
X162018Y478785D01*
X161750D01*
X161481Y478888D01*
X161251Y479043D01*
X161060Y479250D01*
G01X159761D02*
X159531Y478992D01*
X159263Y478837D01*
X158918Y478785D01*
X158573Y478888D01*
X158305Y479095D01*
X158113Y479457D01*
X158075Y479870D01*
X158151Y480283D01*
X158343Y480542D01*
X158611Y480748D01*
X158880Y480800D01*
X159148Y480748D01*
X159493Y480542D01*
X159378Y481885D01*
X158343D01*
G01X151614Y487924D02*
Y491024D01*
X150655D01*
X150349Y490869D01*
X150157Y490662D01*
X150080Y490249D01*
X150157Y489836D01*
X150387Y489577D01*
X150655Y489422D01*
X151614D01*
G01X150655D02*
X150080Y487924D01*
G01X147747D02*
Y491024D01*
X148207Y490404D01*
G01Y487924D02*
X147287D01*
G01X152847Y533709D02*
X155347Y534376D01*
X152847Y535043D01*
G01X154014Y536789D02*
X153889Y536896D01*
X153680Y536976D01*
X153389Y537029D01*
X153139Y536976D01*
X152972Y536869D01*
X152847Y536683D01*
Y535963D01*
X155347D01*
Y536843D01*
X155180Y537029D01*
X154930Y537136D01*
X154639Y537189D01*
X154347Y537136D01*
X154097Y536976D01*
X154014Y536789D01*
Y535963D01*
G01X152847Y538189D02*
X154639D01*
X155014Y538296D01*
X155264Y538509D01*
X155347Y538776D01*
X155264Y539043D01*
X155014Y539256D01*
X154639Y539363D01*
X152847D01*
G01X155014Y540416D02*
X155222Y540629D01*
X155347Y540869D01*
Y541083D01*
X155222Y541296D01*
X155014Y541456D01*
X154722Y541536D01*
X154430Y541483D01*
X154180Y541349D01*
X154014Y541109D01*
X153930Y540789D01*
X153764Y540603D01*
X153472Y540523D01*
X153180Y540576D01*
X152972Y540709D01*
X152847Y540896D01*
Y541083D01*
X152930Y541269D01*
X153139Y541429D01*
G01X155113Y656912D02*
X154883Y656757D01*
X154615Y656654D01*
X154308D01*
X153963Y656809D01*
X153695Y657067D01*
X153503Y657377D01*
X153350Y657894D01*
X153312Y658359D01*
X153388Y658824D01*
X153503Y659134D01*
X153733Y659444D01*
X154002Y659651D01*
X154270Y659754D01*
X154538D01*
X154807Y659651D01*
X155037Y659496D01*
X155228Y659289D01*
G01X156642Y657171D02*
X156872Y656861D01*
X157140Y656706D01*
X157447Y656654D01*
X157830Y656757D01*
X158098Y657016D01*
X158175Y657326D01*
X158137Y657636D01*
X157983Y657894D01*
X157217Y658411D01*
X156872Y658772D01*
X156642Y659289D01*
X156565Y659754D01*
X158175D01*
G01X160470D02*
Y656654D01*
X160010Y657274D01*
G01Y659754D02*
X160930D01*
G01X153704Y671124D02*
Y668024D01*
X154663D01*
X154969Y668179D01*
X155161Y668386D01*
X155238Y668799D01*
X155161Y669212D01*
X154931Y669471D01*
X154663Y669626D01*
X153704D01*
G01X154663D02*
X155238Y671124D01*
G01X157571D02*
Y668024D01*
X157111Y668644D01*
G01Y671124D02*
X158031D01*
G01X160594D02*
X160671Y670452D01*
X160786Y669884D01*
X160939Y669367D01*
X161131Y668799D01*
X161438Y668024D01*
X159904D01*
G01X171414Y519552D02*
X171222Y519242D01*
X170992Y519035D01*
X170724Y518932D01*
X170417Y519035D01*
X170187Y519242D01*
X169957Y519552D01*
X169880Y519965D01*
Y522032D01*
G01X167547Y518932D02*
X167279Y518984D01*
X166972Y519139D01*
X166780Y519397D01*
X166704Y519759D01*
X166780Y520120D01*
X167010Y520430D01*
X167355Y520585D01*
X167739D01*
X167969Y520689D01*
X168160Y520947D01*
X168237Y521309D01*
X168122Y521670D01*
X167854Y521929D01*
X167547Y522032D01*
X167240Y521929D01*
X166972Y521670D01*
X166857Y521309D01*
X166934Y520947D01*
X167125Y520689D01*
X167355Y520585D01*
X167739D01*
X168084Y520430D01*
X168314Y520120D01*
X168390Y519759D01*
X168314Y519397D01*
X168122Y519139D01*
X167815Y518984D01*
X167547Y518932D01*
G01X211571Y648992D02*
X211341Y648837D01*
X211073Y648734D01*
X210766D01*
X210421Y648889D01*
X210153Y649147D01*
X209961Y649457D01*
X209808Y649974D01*
X209770Y650439D01*
X209846Y650904D01*
X209961Y651214D01*
X210191Y651524D01*
X210460Y651731D01*
X210728Y651834D01*
X210996D01*
X211265Y651731D01*
X211495Y651576D01*
X211686Y651369D01*
G01X213100Y649251D02*
X213330Y648941D01*
X213598Y648786D01*
X213905Y648734D01*
X214288Y648837D01*
X214556Y649096D01*
X214633Y649406D01*
X214595Y649716D01*
X214441Y649974D01*
X213675Y650491D01*
X213330Y650852D01*
X213100Y651369D01*
X213023Y651834D01*
X214633D01*
G01X216200Y649251D02*
X216430Y648941D01*
X216698Y648786D01*
X217005Y648734D01*
X217388Y648837D01*
X217656Y649096D01*
X217733Y649406D01*
X217695Y649716D01*
X217541Y649974D01*
X216775Y650491D01*
X216430Y650852D01*
X216200Y651369D01*
X216123Y651834D01*
X217733D01*
G01X209351Y660564D02*
Y657464D01*
X210310D01*
X210616Y657619D01*
X210808Y657826D01*
X210885Y658239D01*
X210808Y658652D01*
X210578Y658911D01*
X210310Y659066D01*
X209351D01*
G01X210310D02*
X210885Y660564D01*
G01X213218D02*
Y657464D01*
X212758Y658084D01*
G01Y660564D02*
X213678D01*
G01X216318D02*
X216586Y660512D01*
X216893Y660357D01*
X217085Y660099D01*
X217161Y659737D01*
X217085Y659376D01*
X216855Y659066D01*
X216510Y658911D01*
X216126D01*
X215896Y658807D01*
X215705Y658549D01*
X215628Y658187D01*
X215743Y657826D01*
X216011Y657567D01*
X216318Y657464D01*
X216625Y657567D01*
X216893Y657826D01*
X217008Y658187D01*
X216931Y658549D01*
X216740Y658807D01*
X216510Y658911D01*
X216126D01*
X215781Y659066D01*
X215551Y659376D01*
X215475Y659737D01*
X215551Y660099D01*
X215743Y660357D01*
X216050Y660512D01*
X216318Y660564D01*
G01X229877Y696804D02*
Y694582D01*
X229724Y694117D01*
X229417Y693807D01*
X229034Y693704D01*
X228651Y693807D01*
X228344Y694117D01*
X228191Y694582D01*
Y696804D01*
G01X225934Y693704D02*
Y696804D01*
X226394Y696184D01*
G01Y693704D02*
X225474D01*
G01X222834Y696804D02*
X223141Y696701D01*
X223371Y696442D01*
X223524Y696132D01*
X223639Y695719D01*
X223677Y695254D01*
X223639Y694789D01*
X223524Y694376D01*
X223371Y694066D01*
X223141Y693807D01*
X222834Y693704D01*
X222527Y693807D01*
X222297Y694066D01*
X222144Y694376D01*
X222029Y694789D01*
X221991Y695254D01*
X222029Y695719D01*
X222144Y696132D01*
X222297Y696442D01*
X222527Y696701D01*
X222834Y696804D01*
G01X291876Y390064D02*
Y387842D01*
X291723Y387377D01*
X291416Y387067D01*
X291033Y386964D01*
X290650Y387067D01*
X290343Y387377D01*
X290190Y387842D01*
Y390064D01*
G01X287933Y386964D02*
Y390064D01*
X288393Y389444D01*
G01Y386964D02*
X287473D01*
G01X284373D02*
Y390064D01*
X285791Y387842D01*
X283875D01*
G01X281026Y409142D02*
X280796Y408987D01*
X280528Y408884D01*
X280221D01*
X279876Y409039D01*
X279608Y409297D01*
X279416Y409607D01*
X279263Y410124D01*
X279225Y410589D01*
X279301Y411054D01*
X279416Y411364D01*
X279646Y411674D01*
X279915Y411881D01*
X280183Y411984D01*
X280451D01*
X280720Y411881D01*
X280950Y411726D01*
X281141Y411519D01*
G01X283283Y411984D02*
Y408884D01*
X282823Y409504D01*
G01Y411984D02*
X283743D01*
G01X286306D02*
X286383Y411312D01*
X286498Y410744D01*
X286651Y410227D01*
X286843Y409659D01*
X287150Y408884D01*
X285616D01*
G01X279822Y401220D02*
Y398120D01*
X280781D01*
X281087Y398275D01*
X281279Y398482D01*
X281356Y398895D01*
X281279Y399308D01*
X281049Y399567D01*
X280781Y399722D01*
X279822D01*
G01X280781D02*
X281356Y401220D01*
G01X283689D02*
Y398120D01*
X283229Y398740D01*
G01Y401220D02*
X284149D01*
G01X286061Y398637D02*
X286291Y398327D01*
X286559Y398172D01*
X286866Y398120D01*
X287249Y398223D01*
X287517Y398482D01*
X287594Y398792D01*
X287556Y399102D01*
X287402Y399360D01*
X286636Y399877D01*
X286291Y400238D01*
X286061Y400755D01*
X285984Y401220D01*
X287594D01*
G01X276769Y462084D02*
Y459862D01*
X276616Y459397D01*
X276309Y459087D01*
X275926Y458984D01*
X275543Y459087D01*
X275236Y459397D01*
X275083Y459862D01*
Y462084D01*
G01X272826Y458984D02*
Y462084D01*
X273286Y461464D01*
G01Y458984D02*
X272366D01*
G01X270569Y459604D02*
X270339Y459242D01*
X270033Y459036D01*
X269688Y458984D01*
X269381Y459036D01*
X269074Y459294D01*
X268883Y459604D01*
X268844Y459914D01*
X268921Y460276D01*
X269189Y460534D01*
X269458Y460637D01*
X269803D01*
G01X269458D02*
X269228Y460792D01*
X269036Y461051D01*
X268959Y461361D01*
X269036Y461671D01*
X269228Y461929D01*
X269573Y462084D01*
X269918Y462032D01*
X270263Y461826D01*
G01X284049Y543392D02*
Y541170D01*
X283896Y540705D01*
X283589Y540395D01*
X283206Y540292D01*
X282823Y540395D01*
X282516Y540705D01*
X282363Y541170D01*
Y543392D01*
G01X280106Y540292D02*
Y543392D01*
X280566Y542772D01*
G01Y540292D02*
X279646D01*
G01X277734Y542875D02*
X277504Y543185D01*
X277236Y543340D01*
X276929Y543392D01*
X276546Y543289D01*
X276278Y543030D01*
X276201Y542720D01*
X276239Y542410D01*
X276393Y542152D01*
X277159Y541635D01*
X277504Y541274D01*
X277734Y540757D01*
X277811Y540292D01*
X276201D01*
G01X275748Y568366D02*
X275518Y568211D01*
X275250Y568108D01*
X274943D01*
X274598Y568263D01*
X274330Y568521D01*
X274138Y568831D01*
X273985Y569348D01*
X273947Y569813D01*
X274023Y570278D01*
X274138Y570588D01*
X274368Y570898D01*
X274637Y571105D01*
X274905Y571208D01*
X275173D01*
X275442Y571105D01*
X275672Y570950D01*
X275863Y570743D01*
G01X277277Y568625D02*
X277507Y568315D01*
X277775Y568160D01*
X278082Y568108D01*
X278465Y568211D01*
X278733Y568470D01*
X278810Y568780D01*
X278772Y569090D01*
X278618Y569348D01*
X277852Y569865D01*
X277507Y570226D01*
X277277Y570743D01*
X277200Y571208D01*
X278810D01*
G01X281105Y568108D02*
X280798Y568211D01*
X280568Y568470D01*
X280415Y568780D01*
X280300Y569193D01*
X280262Y569658D01*
X280300Y570123D01*
X280415Y570536D01*
X280568Y570846D01*
X280798Y571105D01*
X281105Y571208D01*
X281412Y571105D01*
X281642Y570846D01*
X281795Y570536D01*
X281910Y570123D01*
X281948Y569658D01*
X281910Y569193D01*
X281795Y568780D01*
X281642Y568470D01*
X281412Y568211D01*
X281105Y568108D01*
G01X274542Y560847D02*
Y557747D01*
X275501D01*
X275807Y557902D01*
X275999Y558109D01*
X276076Y558522D01*
X275999Y558935D01*
X275769Y559194D01*
X275501Y559349D01*
X274542D01*
G01X275501D02*
X276076Y560847D01*
G01X278409D02*
Y557747D01*
X277949Y558367D01*
G01Y560847D02*
X278869D01*
G01X280666Y560382D02*
X280896Y560640D01*
X281164Y560795D01*
X281509Y560847D01*
X281854Y560744D01*
X282122Y560537D01*
X282314Y560175D01*
X282352Y559762D01*
X282276Y559349D01*
X282084Y559090D01*
X281816Y558884D01*
X281547Y558832D01*
X281279Y558884D01*
X280934Y559090D01*
X281049Y557747D01*
X282084D01*
G01X289449Y480869D02*
Y477769D01*
X290408D01*
X290714Y477924D01*
X290906Y478131D01*
X290983Y478544D01*
X290906Y478957D01*
X290676Y479216D01*
X290408Y479371D01*
X289449D01*
G01X290408D02*
X290983Y480869D01*
G01X293316D02*
Y477769D01*
X292856Y478389D01*
G01Y480869D02*
X293776D01*
G01X295573Y480249D02*
X295803Y480611D01*
X296109Y480817D01*
X296454Y480869D01*
X296761Y480817D01*
X297068Y480559D01*
X297259Y480249D01*
X297298Y479939D01*
X297221Y479577D01*
X296953Y479319D01*
X296684Y479216D01*
X296339D01*
G01X296684D02*
X296914Y479061D01*
X297106Y478802D01*
X297183Y478492D01*
X297106Y478182D01*
X296914Y477924D01*
X296569Y477769D01*
X296224Y477821D01*
X295879Y478027D01*
G01X291094Y487400D02*
X290864Y487245D01*
X290596Y487142D01*
X290289D01*
X289944Y487297D01*
X289676Y487555D01*
X289484Y487865D01*
X289331Y488382D01*
X289293Y488847D01*
X289369Y489312D01*
X289484Y489622D01*
X289714Y489932D01*
X289983Y490139D01*
X290251Y490242D01*
X290519D01*
X290788Y490139D01*
X291018Y489984D01*
X291209Y489777D01*
G01X293351Y490242D02*
Y487142D01*
X292891Y487762D01*
G01Y490242D02*
X293811D01*
G01X295723Y488950D02*
X295991Y488589D01*
X296221Y488382D01*
X296528Y488279D01*
X296796Y488382D01*
X296988Y488589D01*
X297141Y488899D01*
X297179Y489260D01*
X297141Y489570D01*
X296988Y489880D01*
X296758Y490139D01*
X296489Y490242D01*
X296183Y490139D01*
X295914Y489829D01*
X295761Y489364D01*
X295723Y488847D01*
X295799Y488175D01*
X295914Y487814D01*
X296106Y487452D01*
X296374Y487194D01*
X296643Y487142D01*
X296911Y487245D01*
X297103Y487504D01*
G01X295386Y591603D02*
Y589381D01*
X295233Y588916D01*
X294926Y588606D01*
X294543Y588503D01*
X294160Y588606D01*
X293853Y588916D01*
X293700Y589381D01*
Y591603D01*
G01X291443Y588503D02*
Y591603D01*
X291903Y590983D01*
G01Y588503D02*
X290983D01*
G01X288343D02*
Y591603D01*
X288803Y590983D01*
G01Y588503D02*
X287883D01*
G01X291792Y623605D02*
X291562Y623450D01*
X291294Y623347D01*
X290987D01*
X290642Y623502D01*
X290374Y623760D01*
X290182Y624070D01*
X290029Y624587D01*
X289991Y625052D01*
X290067Y625517D01*
X290182Y625827D01*
X290412Y626137D01*
X290681Y626344D01*
X290949Y626447D01*
X291217D01*
X291486Y626344D01*
X291716Y626189D01*
X291907Y625982D01*
G01X294049Y626447D02*
Y623347D01*
X293589Y623967D01*
G01Y626447D02*
X294509D01*
G01X296497Y626085D02*
X296766Y626344D01*
X297072Y626447D01*
X297379Y626344D01*
X297647Y626034D01*
X297839Y625569D01*
X297916Y625104D01*
Y624535D01*
X297839Y624070D01*
X297647Y623657D01*
X297417Y623450D01*
X297149Y623347D01*
X296842Y623450D01*
X296612Y623657D01*
X296459Y623967D01*
X296382Y624380D01*
X296459Y624742D01*
X296651Y625104D01*
X296881Y625310D01*
X297149Y625362D01*
X297456Y625259D01*
X297686Y625000D01*
X297916Y624535D01*
G01X290180Y636193D02*
Y633093D01*
X291139D01*
X291445Y633248D01*
X291637Y633455D01*
X291714Y633868D01*
X291637Y634281D01*
X291407Y634540D01*
X291139Y634695D01*
X290180D01*
G01X291139D02*
X291714Y636193D01*
G01X294047D02*
Y633093D01*
X293587Y633713D01*
G01Y636193D02*
X294507D01*
G01X296419Y634901D02*
X296687Y634540D01*
X296917Y634333D01*
X297224Y634230D01*
X297492Y634333D01*
X297684Y634540D01*
X297837Y634850D01*
X297875Y635211D01*
X297837Y635521D01*
X297684Y635831D01*
X297454Y636090D01*
X297185Y636193D01*
X296879Y636090D01*
X296610Y635780D01*
X296457Y635315D01*
X296419Y634798D01*
X296495Y634126D01*
X296610Y633765D01*
X296802Y633403D01*
X297070Y633145D01*
X297339Y633093D01*
X297607Y633196D01*
X297799Y633455D01*
M02*
