G04 ================== begin FILE IDENTIFICATION RECORD ==================*
G04 Layout Name:  JOYCAR_ARDUINO_BASIC_V0_11.brd*
G04 Film Name:    JOYCAR_ARDUINO_BASIC_V0SMB*
G04 File Format:  Gerber RS274X*
G04 File Origin:  Cadence Allegro 17.2-P019*
G04 Origin Date:  Mon Mar 28 15:26:28 2022*
G04 *
G04 Layer:  BOARD GEOMETRY/SOLDERMASK_BOTTOM*
G04 Layer:  PACKAGE GEOMETRY/SOLDERMASK_BOTTOM*
G04 Layer:  PIN/SOLDERMASK_BOTTOM*
G04 Layer:  VIA CLASS/SOLDERMASK_BOTTOM*
G04 *
G04 Offset:    (0.000 0.000)*
G04 Mirror:    No*
G04 Mode:      Positive*
G04 Rotation:  0*
G04 FullContactRelief:  No*
G04 UndefLineWidth:     1.000*
G04 ================== end FILE IDENTIFICATION RECORD ====================*
%FSLAX25Y25*MOIN*%
%IR0*IPPOS*OFA0.00000B0.00000*MIA0B0*SFA1.00000B1.00000*%
%ADD11C,.15*%
%ADD23R,.094882X.120079*%
%AMMACRO27*
21,1,.103,.108,0.0,0.0,91.*%
%ADD27MACRO27*%
%ADD24R,.041X.071*%
%ADD16R,.037X.032*%
%ADD13R,.032X.037*%
%ADD14R,.041X.057*%
%ADD15R,.032X.032*%
%ADD21C,.077*%
%ADD28O,.025591X.011811*%
%ADD22R,.037402X.041732*%
%ADD19R,.062205X.023228*%
%ADD10C,.055118*%
%ADD20R,.077X.077*%
%ADD26C,.066929*%
%ADD12R,.066929X.043307*%
%ADD25R,.066929X.066929*%
%ADD18R,.059055X.019685*%
%ADD17R,.019685X.059055*%
%LPD*%
G75*
G54D10*
X-207265Y366783D03*
X-200516Y396014D03*
X-196148Y515793D03*
Y545793D03*
X-205195Y595655D03*
Y625655D03*
X-187317Y437874D03*
Y467874D03*
X-168290Y357785D03*
X-161541Y387016D03*
X-156148Y515793D03*
Y545793D03*
X-165195Y595655D03*
Y625655D03*
X-147317Y437874D03*
Y467874D03*
X-138746Y668280D03*
X-142402Y698057D03*
X-102701Y702932D03*
X-99044Y673155D03*
X253176Y673381D03*
X257351Y703089D03*
X301225Y438066D03*
Y468066D03*
X292786Y667814D03*
X296962Y697522D03*
X321807Y358367D03*
X316083Y387816D03*
X310109Y516065D03*
Y546065D03*
X319184Y595691D03*
Y625691D03*
X341225Y438066D03*
Y468066D03*
X355348Y395448D03*
X350109Y516065D03*
Y546065D03*
X359184Y595691D03*
Y625691D03*
X361072Y366000D03*
G54D20*
X-43496Y669394D03*
X57188Y516615D03*
X154172Y521545D03*
X195337Y669800D03*
G54D11*
X-175777Y414748D03*
X-180996Y570485D03*
X20567Y685383D03*
X132972Y685276D03*
X329954Y414856D03*
X334823Y570554D03*
G54D12*
X-143079Y379640D03*
Y366648D03*
X-144620Y611621D03*
Y598629D03*
X-123787Y366648D03*
Y379640D03*
X-123040Y444103D03*
Y457095D03*
X-133445Y521945D03*
Y534937D03*
X-125328Y598629D03*
Y611621D03*
X-103748Y444103D03*
Y457095D03*
X-114153Y521945D03*
Y534937D03*
X-79111Y674158D03*
Y687150D03*
X-59819Y674158D03*
Y687150D03*
X216068Y673772D03*
Y686764D03*
X235360Y673772D03*
Y686764D03*
X261539Y452857D03*
Y439865D03*
X269631Y521173D03*
Y534165D03*
X278880Y380025D03*
Y367033D03*
X280831Y439865D03*
Y452857D03*
X288923Y521173D03*
Y534165D03*
X281577Y611621D03*
Y598629D03*
X298172Y367033D03*
Y380025D03*
X300869Y598629D03*
Y611621D03*
G54D21*
X-43496Y679394D03*
X67188Y516615D03*
X77188D03*
X87188D03*
X97188D03*
X124172Y521545D03*
X114172D03*
X144172D03*
X134172D03*
X195337Y679800D03*
G54D22*
X-24988Y376216D03*
X-18688D03*
Y384878D03*
X-24988D03*
G54D13*
X-139233Y397455D03*
X-144351D03*
X-139232Y406342D03*
X-144350D03*
X-141974Y563179D03*
X-147092D03*
X-142076Y573940D03*
X-147194D03*
X-140452Y652332D03*
X-145570D03*
X-119126Y418681D03*
X-124244D03*
X-119127Y429340D03*
X-124245D03*
X-129687Y492402D03*
X-134805D03*
X-129688Y502859D03*
X-134806D03*
X-122986Y562973D03*
X-128104D03*
X-123392Y573940D03*
X-128510D03*
X-104708Y563379D03*
X-109826D03*
X-105114Y574346D03*
X-110232D03*
X-87648Y562567D03*
X-92766D03*
X-87648Y574346D03*
X-92766D03*
X-74479Y406923D03*
X-79597D03*
X-74479Y413285D03*
X-79597D03*
X-74479Y420065D03*
X-79597D03*
X-66498Y435451D03*
X-68802Y504483D03*
X-68747Y513930D03*
X-69371Y651113D03*
X-74489D03*
X-69777Y659643D03*
X-74895D03*
X-61380Y435451D03*
X-63684Y504483D03*
X-63629Y513930D03*
X-58190Y650735D03*
X-53072D03*
X-34080Y376328D03*
X-39198D03*
X-16988Y662615D03*
X-17015Y671422D03*
X-11870Y662615D03*
X-11897Y671422D03*
X17038Y432186D03*
X22156D03*
X16894Y419061D03*
X22012D03*
X16966Y425444D03*
X22084D03*
X22994Y461834D03*
Y473207D03*
X22747Y495660D03*
X28112Y461834D03*
Y473207D03*
X27865Y495660D03*
X70354Y615777D03*
X65236D03*
X70354Y628774D03*
X65236D03*
X91476Y616183D03*
X86358D03*
X91476Y628368D03*
X86358D03*
X128600Y495954D03*
X143872Y489048D03*
X138754D03*
X133718Y495954D03*
X154027Y479706D03*
X148909D03*
X165970Y658630D03*
X171088D03*
X165968Y669594D03*
X171086D03*
X223241Y650507D03*
X228359D03*
X223239Y658831D03*
X228357D03*
X279373Y480151D03*
X284491D03*
X279408Y489118D03*
X284526D03*
X288431Y559723D03*
X288433Y569271D03*
X294320Y399690D03*
X299438D03*
X294117Y410047D03*
X299235D03*
X293549Y559723D03*
X293551Y569271D03*
X302243Y624714D03*
X302647Y634460D03*
X307361Y624714D03*
X307765Y634460D03*
G54D14*
X-69820Y494118D03*
X-63678D03*
X21999Y486355D03*
X28141D03*
G54D23*
X-20199Y476979D03*
G54D15*
X-69384Y521528D03*
X-63584Y521428D03*
G54D24*
X-14794Y500011D03*
X-25818D03*
G54D25*
X22048Y379591D03*
G54D16*
X-63565Y466496D03*
Y461378D03*
X-63552Y482720D03*
Y477602D03*
X-9543Y379781D03*
X-522Y379965D03*
X-9543Y384899D03*
X-522Y385083D03*
X-11924Y454587D03*
Y459705D03*
X8128Y385198D03*
Y390316D03*
G54D17*
X-37094Y396381D03*
X-33944D03*
Y442837D03*
X-37094D03*
X-30795Y396381D03*
X-27645D03*
X-24496D03*
X-21346D03*
X-18196D03*
X-15047D03*
Y442837D03*
X-18196D03*
X-21346D03*
X-24496D03*
X-27645D03*
X-30795D03*
X-11897Y396381D03*
X-8748D03*
X-5598D03*
Y442837D03*
X-8748D03*
X-11897D03*
G54D26*
X22048Y389591D03*
Y399591D03*
Y409591D03*
X32048Y379591D03*
Y389591D03*
Y399591D03*
Y409591D03*
G54D18*
X-44574Y416459D03*
Y413310D03*
Y410160D03*
Y407011D03*
Y403861D03*
Y432207D03*
Y429058D03*
Y425908D03*
Y422759D03*
Y419609D03*
Y435357D03*
X1882Y410160D03*
Y413310D03*
Y416459D03*
Y403861D03*
Y407011D03*
Y419609D03*
Y422759D03*
Y425908D03*
Y429058D03*
Y432207D03*
Y435357D03*
G54D27*
X57152Y472176D03*
X56829Y490673D03*
G54D19*
X-30534Y469479D03*
Y484479D03*
Y479479D03*
Y474479D03*
X-9864Y469479D03*
Y474479D03*
Y479479D03*
Y484479D03*
G54D28*
X123935Y481674D03*
Y477738D03*
X129447D03*
Y479706D03*
Y481674D03*
M02*
