G04 ================== begin FILE IDENTIFICATION RECORD ==================*
G04 Layout Name:  JOYCAR_ARDUINO_BASIC_V0_11.brd*
G04 Film Name:    JOYCAR_ARDUINO_BASIC_V0BOL*
G04 File Format:  Gerber RS274X*
G04 File Origin:  Cadence Allegro 17.2-P019*
G04 Origin Date:  Mon Mar 28 15:32:30 2022*
G04 *
G04 Layer:  BOARD GEOMETRY/DESIGN_OUTLINE*
G04 *
G04 Offset:    (0.000 0.000)*
G04 Mirror:    No*
G04 Mode:      Positive*
G04 Rotation:  0*
G04 FullContactRelief:  No*
G04 UndefLineWidth:     1.000*
G04 ================== end FILE IDENTIFICATION RECORD ====================*
%FSLAX25Y25*MOIN*%
%IR0*IPPOS*OFA0.00000B0.00000*MIA0B0*SFA1.00000B1.00000*%
%ADD10C,.001*%
G75*
%LPD*%
G75*
G54D10*
G01X-214396Y608747D02*
X-210713Y381704D01*
G02X-214390Y370895I-33292J5295D01*
G03X-205811Y357079I12301J-1934D01*
G01X-171159Y349837D01*
G03X-163248Y351174I1577J14744D01*
G02X-158457I2395J-7378D01*
G01X-124697Y345157D01*
X-90714Y340143D01*
X-61076Y336801D01*
G03X-36118Y355965I3919J20730D01*
G02X-11718Y362984I14708J-5209D01*
G03X-2692Y359753I9323J11820D01*
G01X43213D01*
G03X53352Y370227I-2014J12094D01*
G01Y410004D01*
G02X100595Y409892I23621J-393D01*
G01X100540Y371510D01*
G03X111347Y359922I11737J112D01*
G01X157419Y359811D01*
G03X166779Y363599I-2861J20527D01*
G02X184216I8718J-13174D01*
G02X191291Y351733I-9314J-13596D01*
G03X212461Y336524I19107J4258D01*
G01X255413Y341761D01*
X312405Y351232D01*
G02X321207Y349895I2899J-10559D01*
G03X326555Y350285I1709J13432D01*
G01X359870Y357304D01*
G03X366109Y376468I-3918J11873D01*
G01X364438Y382819D01*
X366109Y471175D01*
X368226Y599086D01*
X367335Y619475D01*
G03X358644Y651007I-76847J-4217D01*
G03X343379Y653570I-8998J-6854D01*
G01X338477Y650673D01*
G02X311402Y672177I-7701J18100D01*
G02X316973Y683542I24578J-5000D01*
G03X311179Y700366I-9853J6017D01*
G03X271068Y710728I-43522J-85658D01*
G01X99035Y711063D01*
X91459Y717079D01*
X59816Y717302D01*
X51013Y711063D01*
X-117677Y710840D01*
G03X-160908Y698138I8487J-108806D01*
G03X-161687Y680979I9262J-9018D01*
G02X-165030Y653124I-14586J-12378D01*
G02X-188762Y653013I-11937J15147D01*
G03X-203136Y652344I-6835J-7896D01*
G03X-208595Y642428I12157J-13153D01*
G03X-213776Y619698I73991J-28821D01*
G01X-214110Y616024D01*
X-214158Y615238D01*
X-214396Y608747D01*
M02*
