G04 ================== begin FILE IDENTIFICATION RECORD ==================*
G04 Layout Name:  JOYCAR_ARDUINO_BASIC_V0_11.brd*
G04 Film Name:    JOYCAR_ARDUINO_BASIC_V0SST*
G04 File Format:  Gerber RS274X*
G04 File Origin:  Cadence Allegro 17.2-P019*
G04 Origin Date:  Mon Mar 28 15:26:28 2022*
G04 *
G04 Layer:  BOARD GEOMETRY/SILKSCREEN_TOP*
G04 Layer:  PACKAGE GEOMETRY/SILKSCREEN_TOP*
G04 Layer:  REF DES/SILKSCREEN_TOP*
G04 *
G04 Offset:    (0.000 0.000)*
G04 Mirror:    No*
G04 Mode:      Positive*
G04 Rotation:  0*
G04 FullContactRelief:  No*
G04 UndefLineWidth:     1.000*
G04 ================== end FILE IDENTIFICATION RECORD ====================*
%FSLAX25Y25*MOIN*%
%IR0*IPPOS*OFA0.00000B0.00000*MIA0B0*SFA1.00000B1.00000*%
%ADD10C,.008*%
%ADD11C,.003937*%
%ADD12C,.001*%
%ADD13C,.011811*%
G75*
%LPD*%
G75*
G54D10*
G01X-43496Y659394D02*
X-53496D01*
G01D02*
Y689394D01*
G01D02*
X-30996D01*
G01Y659394D02*
X-43496D01*
G01X-30996Y689394D02*
Y659394D01*
G01X107188Y504115D02*
X47188D01*
G01D02*
Y516615D01*
G01D02*
Y526615D01*
G01D02*
X107188D01*
G01D02*
Y504115D01*
G01X195337Y659800D02*
X185337D01*
G01D02*
Y689800D01*
G01X207837Y659800D02*
X195337D01*
G01X185337Y689800D02*
X207837D01*
G01D02*
Y659800D01*
G54D11*
G01X-129798Y608318D02*
X-83341D01*
G01X-129798Y621114D02*
Y608318D01*
G01Y642767D02*
Y655563D01*
G01D02*
X-83341D01*
G01Y608318D02*
Y621114D01*
G01Y655563D02*
Y642767D01*
G54D12*
G01X-29280Y679445D02*
X-28747D01*
Y678695D01*
X-28907Y678445D01*
X-29093Y678278D01*
X-29360Y678195D01*
X-29627Y678278D01*
X-29813Y678445D01*
X-29973Y678695D01*
X-30080Y678987D01*
X-30133Y679320D01*
Y679612D01*
X-30080Y679862D01*
X-29973Y680153D01*
X-29813Y680403D01*
X-29653Y680570D01*
X-29440Y680695D01*
X-29253D01*
X-29040Y680612D01*
X-28880Y680445D01*
G01X-27853Y678195D02*
Y680695D01*
X-26627Y678195D01*
Y680695D01*
G01X-25627Y678195D02*
Y680695D01*
X-25093D01*
X-24880Y680570D01*
X-24720Y680403D01*
X-24587Y680153D01*
X-24480Y679862D01*
X-24453Y679445D01*
X-24480Y679028D01*
X-24587Y678737D01*
X-24720Y678487D01*
X-24880Y678320D01*
X-25093Y678195D01*
X-25627D01*
G01X-28810Y668624D02*
X-29876D01*
Y671124D01*
X-28810D01*
G01X-29236Y669916D02*
X-29876D01*
G01X-27703Y668624D02*
X-26583Y671124D01*
G01X-27703D02*
X-26583Y668624D01*
G01X-24943D02*
Y671124D01*
X-25263Y670624D01*
G01Y668624D02*
X-24623D01*
G01X43566Y370056D02*
X41066Y370723D01*
X43566Y371390D01*
G01X43357Y373510D02*
X43482Y373350D01*
X43566Y373163D01*
Y372950D01*
X43441Y372710D01*
X43232Y372523D01*
X42982Y372390D01*
X42566Y372283D01*
X42191Y372256D01*
X41816Y372310D01*
X41566Y372390D01*
X41316Y372550D01*
X41149Y372736D01*
X41066Y372923D01*
Y373110D01*
X41149Y373296D01*
X41274Y373456D01*
X41441Y373590D01*
G01X43357Y375710D02*
X43482Y375550D01*
X43566Y375363D01*
Y375150D01*
X43441Y374910D01*
X43232Y374723D01*
X42982Y374590D01*
X42566Y374483D01*
X42191Y374456D01*
X41816Y374510D01*
X41566Y374590D01*
X41316Y374750D01*
X41149Y374936D01*
X41066Y375123D01*
Y375310D01*
X41149Y375496D01*
X41274Y375656D01*
X41441Y375790D01*
G01X41899Y379176D02*
Y379870D01*
G01X41066Y383230D02*
X43566D01*
X41482Y383923D01*
X43566Y384616D01*
X41066D01*
G01X43566Y385803D02*
Y386443D01*
G01Y386123D02*
X41066D01*
G01Y385803D02*
Y386443D01*
G01X41399Y387763D02*
X41191Y387976D01*
X41066Y388216D01*
Y388430D01*
X41191Y388643D01*
X41399Y388803D01*
X41691Y388883D01*
X41982Y388830D01*
X42232Y388696D01*
X42399Y388456D01*
X42482Y388136D01*
X42649Y387950D01*
X42941Y387870D01*
X43232Y387923D01*
X43441Y388056D01*
X43566Y388243D01*
Y388430D01*
X43482Y388616D01*
X43274Y388776D01*
G01X41066Y390523D02*
X41108Y390310D01*
X41274Y390123D01*
X41524Y389963D01*
X41816Y389856D01*
X42149Y389803D01*
X42482D01*
X42816Y389856D01*
X43108Y389963D01*
X43357Y390123D01*
X43524Y390310D01*
X43566Y390523D01*
X43524Y390736D01*
X43357Y390923D01*
X43108Y391083D01*
X42816Y391190D01*
X42482Y391243D01*
X42149D01*
X41816Y391190D01*
X41524Y391083D01*
X41274Y390923D01*
X41108Y390736D01*
X41066Y390523D01*
G01X41899Y394576D02*
Y395270D01*
G01X41399Y398763D02*
X41191Y398976D01*
X41066Y399216D01*
Y399430D01*
X41191Y399643D01*
X41399Y399803D01*
X41691Y399883D01*
X41982Y399830D01*
X42232Y399696D01*
X42399Y399456D01*
X42482Y399136D01*
X42649Y398950D01*
X42941Y398870D01*
X43232Y398923D01*
X43441Y399056D01*
X43566Y399243D01*
Y399430D01*
X43482Y399616D01*
X43274Y399776D01*
G01X43357Y402110D02*
X43482Y401950D01*
X43566Y401763D01*
Y401550D01*
X43441Y401310D01*
X43232Y401123D01*
X42982Y400990D01*
X42566Y400883D01*
X42191Y400856D01*
X41816Y400910D01*
X41566Y400990D01*
X41316Y401150D01*
X41149Y401336D01*
X41066Y401523D01*
Y401710D01*
X41149Y401896D01*
X41274Y402056D01*
X41441Y402190D01*
G01X41066Y403136D02*
X43566D01*
G01Y404150D02*
X42024Y403136D01*
G01X41066Y404310D02*
X42732Y403590D01*
G01X41899Y407776D02*
Y408470D01*
G01X41066Y411830D02*
X43566D01*
X41482Y412523D01*
X43566Y413216D01*
X41066D01*
G01Y414723D02*
X41108Y414510D01*
X41274Y414323D01*
X41524Y414163D01*
X41816Y414056D01*
X42149Y414003D01*
X42482D01*
X42816Y414056D01*
X43108Y414163D01*
X43357Y414323D01*
X43524Y414510D01*
X43566Y414723D01*
X43524Y414936D01*
X43357Y415123D01*
X43108Y415283D01*
X42816Y415390D01*
X42482Y415443D01*
X42149D01*
X41816Y415390D01*
X41524Y415283D01*
X41274Y415123D01*
X41108Y414936D01*
X41066Y414723D01*
G01X41399Y416363D02*
X41191Y416576D01*
X41066Y416816D01*
Y417030D01*
X41191Y417243D01*
X41399Y417403D01*
X41691Y417483D01*
X41982Y417430D01*
X42232Y417296D01*
X42399Y417056D01*
X42482Y416736D01*
X42649Y416550D01*
X42941Y416470D01*
X43232Y416523D01*
X43441Y416656D01*
X43566Y416843D01*
Y417030D01*
X43482Y417216D01*
X43274Y417376D01*
G01X43566Y418803D02*
Y419443D01*
G01Y419123D02*
X41066D01*
G01Y418803D02*
Y419443D01*
G01X47325Y369996D02*
X49825D01*
Y370662D01*
X49700Y370876D01*
X49533Y371009D01*
X49200Y371062D01*
X48866Y371009D01*
X48658Y370849D01*
X48533Y370662D01*
Y369996D01*
G01Y370662D02*
X47325Y371062D01*
G01Y373262D02*
Y372196D01*
X49825D01*
Y373262D01*
G01X48616Y372836D02*
Y372196D01*
G01X47658Y374369D02*
X47450Y374582D01*
X47325Y374822D01*
Y375036D01*
X47450Y375249D01*
X47658Y375409D01*
X47950Y375489D01*
X48241Y375436D01*
X48491Y375302D01*
X48658Y375062D01*
X48741Y374742D01*
X48908Y374556D01*
X49200Y374476D01*
X49491Y374529D01*
X49700Y374662D01*
X49825Y374849D01*
Y375036D01*
X49741Y375222D01*
X49533Y375382D01*
G01X47325Y377662D02*
Y376596D01*
X49825D01*
Y377662D01*
G01X48616Y377236D02*
Y376596D01*
G01X49825Y379329D02*
X47325D01*
G01X49825Y378716D02*
Y379942D01*
G01X48158Y383382D02*
Y384076D01*
G01X48575Y388289D02*
Y388822D01*
X47825D01*
X47574Y388662D01*
X47408Y388476D01*
X47325Y388209D01*
X47408Y387942D01*
X47574Y387756D01*
X47825Y387596D01*
X48116Y387489D01*
X48450Y387436D01*
X48741D01*
X48991Y387489D01*
X49283Y387596D01*
X49533Y387756D01*
X49700Y387916D01*
X49825Y388129D01*
Y388316D01*
X49741Y388529D01*
X49575Y388689D01*
G01X47325Y389716D02*
X49825D01*
X47325Y390942D01*
X49825D01*
G01X47325Y391942D02*
X49825D01*
Y392476D01*
X49700Y392689D01*
X49533Y392849D01*
X49283Y392982D01*
X48991Y393089D01*
X48575Y393116D01*
X48158Y393089D01*
X47866Y392982D01*
X47616Y392849D01*
X47450Y392689D01*
X47325Y392476D01*
Y391942D01*
G01X48158Y396582D02*
Y397276D01*
G01X48575Y401489D02*
Y402022D01*
X47825D01*
X47574Y401862D01*
X47408Y401676D01*
X47325Y401409D01*
X47408Y401142D01*
X47574Y400956D01*
X47825Y400796D01*
X48116Y400689D01*
X48450Y400636D01*
X48741D01*
X48991Y400689D01*
X49283Y400796D01*
X49533Y400956D01*
X49700Y401116D01*
X49825Y401329D01*
Y401516D01*
X49741Y401729D01*
X49575Y401889D01*
G01X47325Y402916D02*
X49825D01*
X47325Y404142D01*
X49825D01*
G01X47325Y405142D02*
X49825D01*
Y405676D01*
X49700Y405889D01*
X49533Y406049D01*
X49283Y406182D01*
X48991Y406289D01*
X48575Y406316D01*
X48158Y406289D01*
X47866Y406182D01*
X47616Y406049D01*
X47450Y405889D01*
X47325Y405676D01*
Y405142D01*
G01X48158Y409782D02*
Y410476D01*
G01X48575Y414689D02*
Y415222D01*
X47825D01*
X47574Y415062D01*
X47408Y414876D01*
X47325Y414609D01*
X47408Y414342D01*
X47574Y414156D01*
X47825Y413996D01*
X48116Y413889D01*
X48450Y413836D01*
X48741D01*
X48991Y413889D01*
X49283Y413996D01*
X49533Y414156D01*
X49700Y414316D01*
X49825Y414529D01*
Y414716D01*
X49741Y414929D01*
X49575Y415089D01*
G01X47325Y416116D02*
X49825D01*
X47325Y417342D01*
X49825D01*
G01X47325Y418342D02*
X49825D01*
Y418876D01*
X49700Y419089D01*
X49533Y419249D01*
X49283Y419382D01*
X48991Y419489D01*
X48575Y419516D01*
X48158Y419489D01*
X47866Y419382D01*
X47616Y419249D01*
X47450Y419089D01*
X47325Y418876D01*
Y418342D01*
G01X55334Y530801D02*
X57834Y531468D01*
X55334Y532135D01*
G01X56501Y533881D02*
X56376Y533988D01*
X56167Y534068D01*
X55876Y534121D01*
X55626Y534068D01*
X55459Y533961D01*
X55334Y533775D01*
Y533055D01*
X57834D01*
Y533935D01*
X57667Y534121D01*
X57417Y534228D01*
X57126Y534281D01*
X56834Y534228D01*
X56584Y534068D01*
X56501Y533881D01*
Y533055D01*
G01X55334Y535281D02*
X57126D01*
X57501Y535388D01*
X57751Y535601D01*
X57834Y535868D01*
X57751Y536135D01*
X57501Y536348D01*
X57126Y536455D01*
X55334D01*
G01X57501Y537508D02*
X57709Y537721D01*
X57834Y537961D01*
Y538175D01*
X57709Y538388D01*
X57501Y538548D01*
X57209Y538628D01*
X56917Y538575D01*
X56667Y538441D01*
X56501Y538201D01*
X56417Y537881D01*
X56251Y537695D01*
X55959Y537615D01*
X55667Y537668D01*
X55459Y537801D01*
X55334Y537988D01*
Y538175D01*
X55417Y538361D01*
X55626Y538521D01*
G01X65774Y530975D02*
X67566D01*
X67941Y531082D01*
X68191Y531295D01*
X68274Y531562D01*
X68191Y531829D01*
X67941Y532042D01*
X67566Y532149D01*
X65774D01*
G01X67941Y533202D02*
X68149Y533415D01*
X68274Y533655D01*
Y533869D01*
X68149Y534082D01*
X67941Y534242D01*
X67649Y534322D01*
X67357Y534269D01*
X67107Y534135D01*
X66941Y533895D01*
X66857Y533575D01*
X66691Y533389D01*
X66399Y533309D01*
X66107Y533362D01*
X65899Y533495D01*
X65774Y533682D01*
Y533869D01*
X65857Y534055D01*
X66066Y534215D01*
G01X66941Y536175D02*
X66816Y536282D01*
X66607Y536362D01*
X66316Y536415D01*
X66066Y536362D01*
X65899Y536255D01*
X65774Y536069D01*
Y535349D01*
X68274D01*
Y536229D01*
X68107Y536415D01*
X67857Y536522D01*
X67566Y536575D01*
X67274Y536522D01*
X67024Y536362D01*
X66941Y536175D01*
Y535349D01*
G01X68274Y537575D02*
X65774D01*
Y538109D01*
X65899Y538322D01*
X66066Y538482D01*
X66316Y538615D01*
X66607Y538722D01*
X67024Y538749D01*
X67441Y538722D01*
X67732Y538615D01*
X67982Y538482D01*
X68149Y538322D01*
X68274Y538109D01*
Y537575D01*
G01X69107Y539562D02*
Y541162D01*
G01X68274Y542029D02*
X65774D01*
Y542669D01*
X65899Y542882D01*
X66191Y543042D01*
X66524Y543095D01*
X66857Y543042D01*
X67107Y542909D01*
X67232Y542669D01*
Y542029D01*
G01X88383Y531029D02*
X85883D01*
Y531695D01*
X86008Y531909D01*
X86175Y532042D01*
X86508Y532095D01*
X86841Y532042D01*
X87050Y531882D01*
X87175Y531695D01*
Y531029D01*
G01Y531695D02*
X88383Y532095D01*
G01Y534295D02*
Y533229D01*
X85883D01*
Y534295D01*
G01X87091Y533869D02*
Y533229D01*
G01X85883Y535455D02*
Y536469D01*
X88383Y535455D01*
Y536469D01*
G01X75829Y531169D02*
X77621D01*
X77996Y531276D01*
X78246Y531489D01*
X78329Y531756D01*
X78246Y532023D01*
X77996Y532236D01*
X77621Y532343D01*
X75829D01*
G01X77996Y533396D02*
X78204Y533609D01*
X78329Y533849D01*
Y534063D01*
X78204Y534276D01*
X77996Y534436D01*
X77704Y534516D01*
X77412Y534463D01*
X77162Y534329D01*
X76996Y534089D01*
X76912Y533769D01*
X76746Y533583D01*
X76454Y533503D01*
X76162Y533556D01*
X75954Y533689D01*
X75829Y533876D01*
Y534063D01*
X75912Y534249D01*
X76121Y534409D01*
G01X76996Y536369D02*
X76871Y536476D01*
X76662Y536556D01*
X76371Y536609D01*
X76121Y536556D01*
X75954Y536449D01*
X75829Y536263D01*
Y535543D01*
X78329D01*
Y536423D01*
X78162Y536609D01*
X77912Y536716D01*
X77621Y536769D01*
X77329Y536716D01*
X77079Y536556D01*
X76996Y536369D01*
Y535543D01*
G01X78329Y537769D02*
X75829D01*
Y538303D01*
X75954Y538516D01*
X76121Y538676D01*
X76371Y538809D01*
X76662Y538916D01*
X77079Y538943D01*
X77496Y538916D01*
X77787Y538809D01*
X78037Y538676D01*
X78204Y538516D01*
X78329Y538303D01*
Y537769D01*
G01X79162Y539756D02*
Y541356D01*
G01X78329Y542143D02*
X75829D01*
X78329Y543369D01*
X75829D01*
G01X222218Y388011D02*
X221901Y387511D01*
X221522Y387178D01*
X221078Y387011D01*
X220571Y387178D01*
X220191Y387511D01*
X219811Y388011D01*
X219685Y388678D01*
Y392011D01*
G01X215852Y387011D02*
X216358Y387094D01*
X216801Y387428D01*
X217181Y387928D01*
X217435Y388511D01*
X217561Y389178D01*
Y389844D01*
X217435Y390511D01*
X217181Y391094D01*
X216801Y391594D01*
X216358Y391928D01*
X215852Y392011D01*
X215345Y391928D01*
X214901Y391594D01*
X214521Y391094D01*
X214268Y390511D01*
X214141Y389844D01*
Y389178D01*
X214268Y388511D01*
X214521Y387928D01*
X214901Y387428D01*
X215345Y387094D01*
X215852Y387011D01*
G01X210751D02*
Y389261D01*
X212018Y392011D01*
G01X209485D02*
X210751Y389261D01*
G01X204258Y391594D02*
X204638Y391844D01*
X205081Y392011D01*
X205588D01*
X206158Y391761D01*
X206601Y391344D01*
X206918Y390844D01*
X207172Y390011D01*
X207235Y389261D01*
X207108Y388511D01*
X206918Y388011D01*
X206538Y387511D01*
X206095Y387178D01*
X205652Y387011D01*
X205208D01*
X204765Y387178D01*
X204385Y387428D01*
X204068Y387761D01*
G01X202135Y387011D02*
X200552Y392011D01*
X198968Y387011D01*
G01X199538Y388761D02*
X201565D01*
G01X196718Y387011D02*
Y392011D01*
X195135D01*
X194628Y391761D01*
X194311Y391428D01*
X194185Y390761D01*
X194311Y390094D01*
X194691Y389678D01*
X195135Y389428D01*
X196718D01*
G01X195135D02*
X194185Y387011D01*
G01X192251Y385344D02*
X188451D01*
G01X186835Y387011D02*
X185252Y392011D01*
X183668Y387011D01*
G01X184238Y388761D02*
X186265D01*
G01X181418Y387011D02*
Y392011D01*
X179835D01*
X179328Y391761D01*
X179011Y391428D01*
X178885Y390761D01*
X179011Y390094D01*
X179391Y389678D01*
X179835Y389428D01*
X181418D01*
G01X179835D02*
X178885Y387011D01*
G01X176445D02*
Y392011D01*
X175178D01*
X174671Y391761D01*
X174291Y391428D01*
X173975Y390928D01*
X173721Y390344D01*
X173658Y389511D01*
X173721Y388678D01*
X173975Y388094D01*
X174291Y387594D01*
X174671Y387261D01*
X175178Y387011D01*
X176445D01*
G01X171345Y392011D02*
Y388428D01*
X171091Y387678D01*
X170585Y387178D01*
X169952Y387011D01*
X169318Y387178D01*
X168811Y387678D01*
X168558Y388428D01*
Y392011D01*
G01X165611D02*
X164092D01*
G01X164852D02*
Y387011D01*
G01X165611D02*
X164092D01*
G01X161208D02*
Y392011D01*
X158295Y387011D01*
Y392011D01*
G01X154652Y387011D02*
X155158Y387094D01*
X155601Y387428D01*
X155981Y387928D01*
X156235Y388511D01*
X156361Y389178D01*
Y389844D01*
X156235Y390511D01*
X155981Y391094D01*
X155601Y391594D01*
X155158Y391928D01*
X154652Y392011D01*
X154145Y391928D01*
X153701Y391594D01*
X153321Y391094D01*
X153068Y390511D01*
X152941Y389844D01*
Y389178D01*
X153068Y388511D01*
X153321Y387928D01*
X153701Y387428D01*
X154145Y387094D01*
X154652Y387011D01*
G01X151451Y385344D02*
X147651D01*
G01X143945Y389678D02*
X143691Y389928D01*
X143501Y390344D01*
X143375Y390928D01*
X143501Y391428D01*
X143755Y391761D01*
X144198Y392011D01*
X145908D01*
Y387011D01*
X143818D01*
X143375Y387344D01*
X143121Y387844D01*
X142995Y388428D01*
X143121Y389011D01*
X143501Y389511D01*
X143945Y389678D01*
X145908D01*
G01X140935Y387011D02*
X139352Y392011D01*
X137768Y387011D01*
G01X138338Y388761D02*
X140365D01*
G01X135581Y387678D02*
X135075Y387261D01*
X134505Y387011D01*
X133998D01*
X133491Y387261D01*
X133111Y387678D01*
X132921Y388261D01*
X133048Y388844D01*
X133365Y389344D01*
X133935Y389678D01*
X134695Y389844D01*
X135138Y390178D01*
X135328Y390761D01*
X135201Y391344D01*
X134885Y391761D01*
X134441Y392011D01*
X133998D01*
X133555Y391844D01*
X133175Y391428D01*
G01X129911Y392011D02*
X128391D01*
G01X129152D02*
Y387011D01*
G01X129911D02*
X128391D01*
G01X122658Y391594D02*
X123038Y391844D01*
X123481Y392011D01*
X123988D01*
X124558Y391761D01*
X125001Y391344D01*
X125318Y390844D01*
X125571Y390011D01*
X125635Y389261D01*
X125508Y388511D01*
X125318Y388011D01*
X124938Y387511D01*
X124495Y387178D01*
X124052Y387011D01*
X123608D01*
X123165Y387178D01*
X122785Y387428D01*
X122468Y387761D01*
G01X120851Y385344D02*
X117051D01*
G01X115435Y392011D02*
X113852Y387011D01*
X112268Y392011D01*
G01X108752D02*
X109258Y391844D01*
X109638Y391428D01*
X109891Y390928D01*
X110081Y390261D01*
X110145Y389511D01*
X110081Y388761D01*
X109891Y388094D01*
X109638Y387594D01*
X109258Y387178D01*
X108752Y387011D01*
X108245Y387178D01*
X107865Y387594D01*
X107611Y388094D01*
X107421Y388761D01*
X107358Y389511D01*
X107421Y390261D01*
X107611Y390928D01*
X107865Y391428D01*
X108245Y391844D01*
X108752Y392011D01*
G01X105551Y385344D02*
X101751D01*
G01X98552Y392011D02*
X99058Y391844D01*
X99438Y391428D01*
X99691Y390928D01*
X99881Y390261D01*
X99945Y389511D01*
X99881Y388761D01*
X99691Y388094D01*
X99438Y387594D01*
X99058Y387178D01*
X98552Y387011D01*
X98045Y387178D01*
X97665Y387594D01*
X97411Y388094D01*
X97221Y388761D01*
X97158Y389511D01*
X97221Y390261D01*
X97411Y390928D01*
X97665Y391428D01*
X98045Y391844D01*
X98552Y392011D01*
G01X97768Y531722D02*
Y532255D01*
X98518D01*
X98768Y532095D01*
X98935Y531909D01*
X99018Y531642D01*
X98935Y531375D01*
X98768Y531189D01*
X98518Y531029D01*
X98226Y530922D01*
X97893Y530869D01*
X97601D01*
X97351Y530922D01*
X97060Y531029D01*
X96810Y531189D01*
X96643Y531349D01*
X96518Y531562D01*
Y531749D01*
X96601Y531962D01*
X96768Y532122D01*
G01X99018Y533149D02*
X96518D01*
X99018Y534375D01*
X96518D01*
G01X99018Y535375D02*
X96518D01*
Y535909D01*
X96643Y536122D01*
X96810Y536282D01*
X97060Y536415D01*
X97351Y536522D01*
X97768Y536549D01*
X98185Y536522D01*
X98476Y536415D01*
X98726Y536282D01*
X98893Y536122D01*
X99018Y535909D01*
Y535375D01*
G01X178770Y679590D02*
X179303D01*
Y678840D01*
X179143Y678590D01*
X178957Y678423D01*
X178690Y678340D01*
X178423Y678423D01*
X178237Y678590D01*
X178077Y678840D01*
X177970Y679132D01*
X177917Y679465D01*
Y679757D01*
X177970Y680007D01*
X178077Y680298D01*
X178237Y680548D01*
X178397Y680715D01*
X178610Y680840D01*
X178797D01*
X179010Y680757D01*
X179170Y680590D01*
G01X180197Y678340D02*
Y680840D01*
X181423Y678340D01*
Y680840D01*
G01X182423Y678340D02*
Y680840D01*
X182957D01*
X183170Y680715D01*
X183330Y680548D01*
X183463Y680298D01*
X183570Y680007D01*
X183597Y679590D01*
X183570Y679173D01*
X183463Y678882D01*
X183330Y678632D01*
X183170Y678465D01*
X182957Y678340D01*
X182423D01*
G01X179240Y668769D02*
X178174D01*
Y671269D01*
X179240D01*
G01X178814Y670061D02*
X178174D01*
G01X180347Y668769D02*
X181467Y671269D01*
G01X180347D02*
X181467Y668769D01*
G01X182600Y670852D02*
X182760Y671102D01*
X182947Y671227D01*
X183160Y671269D01*
X183427Y671186D01*
X183614Y670977D01*
X183667Y670727D01*
X183640Y670477D01*
X183534Y670269D01*
X183000Y669852D01*
X182760Y669561D01*
X182600Y669144D01*
X182547Y668769D01*
X183667D01*
G54D13*
G01X-118774Y595523D02*
G03X-118380I197J0D01*
G01D02*
G03X-118774I-197J0D01*
M02*
